<svg id="facebook-box-fill" xmlns="http://www.w3.org/2000/svg" width="19.999" height="19.999" viewBox="0 0 19.999 19.999">
  <path id="Контур_64" data-name="Контур 64" d="M0,0H20V20H0Z" fill="none"/>
  <path id="Контур_65" data-name="Контур 65" d="M13.324,17.985v-5.8h1.942l.291-2.254H13.324V8.493c0-.653.181-1.1,1.117-1.1h1.194V5.378a15.976,15.976,0,0,0-1.74-.089A2.716,2.716,0,0,0,11,8.27V9.931H9.05v2.254H11v5.8H3.832A.832.832,0,0,1,3,17.152V3.832A.832.832,0,0,1,3.832,3h13.32a.832.832,0,0,1,.832.832v13.32a.832.832,0,0,1-.832.832Z" transform="translate(-0.493 -0.493)"/>
</svg>
