<svg id="Logotype" xmlns="http://www.w3.org/2000/svg" width="200" height="48" viewBox="0 0 200 48">
  <g id="Layer_1" data-name="Layer 1">
    <path id="Контур_24" data-name="Контур 24" d="M143.905,69.614l5.577-7h3.346l-6.113,7.674,6.869,7.937h-3.548l-6.131-7.046v7.046H141.23V62.61h2.675Z" transform="translate(-90.895 -40.462)" fill="#2c53a4"/>
    <path id="Контур_25" data-name="Контур 25" d="M183.169,78.757,176.19,62.61h2.92l4.148,10.016,4.1-10.016h2.785Z" transform="translate(-113.393 -40.463)" fill="#2c53a4"/>
    <path id="Контур_26" data-name="Контур 26" d="M217.186,62.61H219.9l6.067,15.611h-2.7l-1.419-3.7h-6.6l-1.419,3.7h-2.7Zm-.983,9.455h4.683l-2.345-6.088Z" transform="translate(-135.885 -40.462)" fill="#2c53a4"/>
    <path id="Контур_27" data-name="Контур 27" d="M270.748,70.416a7.47,7.47,0,0,1-7.713,7.805H258V62.61h5.042A7.472,7.472,0,0,1,270.748,70.416Zm-2.718,0a4.971,4.971,0,0,0-4.967-5.262h-2.409V75.681h2.409A4.976,4.976,0,0,0,268.03,70.416Z" transform="translate(-166.047 -40.462)" fill="#2c53a4"/>
    <path id="Контур_28" data-name="Контур 28" d="M300.73,62.61h5.13c3.1,0,5.173,2.008,5.173,4.864a4.512,4.512,0,0,1-3.477,4.683l3.9,6.063h-3.122l-3.7-5.893h-1.228v5.886H300.73Zm7.582,4.864c0-1.54-1.064-2.32-2.785-2.32H303.4v4.637h2.129C307.244,69.791,308.312,69.011,308.312,67.474Z" transform="translate(-193.553 -40.462)" fill="#2c53a4"/>
    <path id="Контур_29" data-name="Контур 29" d="M339.209,62.61h2.721l6.063,15.611h-2.7l-1.419-3.7h-6.6l-1.419,3.7h-2.7Zm-.983,9.455h4.683l-2.356-6.088Z" transform="translate(-214.414 -40.462)" fill="#2c53a4"/>
    <path id="Контур_30" data-name="Контур 30" d="M378.2,65.154H373.91V62.61H385.2v2.544h-4.3V78.221H378.2Z" transform="translate(-240.651 -40.462)" fill="#2c53a4"/>
    <path id="Контур_31" data-name="Контур 31" d="M413.733,62.61l5.088,7.852L423.9,62.61h2.484V78.221h-2.675V67.74l-4.893,7.426-4.886-7.426V78.221H411.26V62.61Z" transform="translate(-264.676 -40.462)" fill="#499bd5"/>
    <path id="Контур_32" data-name="Контур 32" d="M465.885,68.943h6.244v2.544h-6.244v4.194H472.8v2.54H463.22V62.61h9.455v2.544h-6.791Z" transform="translate(-298.025 -40.462)" fill="#499bd5"/>
    <path id="Контур_33" data-name="Контур 33" d="M498.044,65.154h-4.3V62.61h11.286v2.544h-4.3V78.221h-2.679Z" transform="translate(-317.717 -40.462)" fill="#499bd5"/>
    <path id="Контур_34" data-name="Контур 34" d="M531.09,62.61h5.127c3.1,0,5.177,2.008,5.177,4.864a4.512,4.512,0,0,1-3.481,4.683l3.9,6.063h-3.122l-3.7-5.893h-1.228v5.886H531.09Zm7.582,4.864c0-1.54-1.064-2.32-2.789-2.32h-2.129v4.637h2.129C537.6,69.791,538.672,69.011,538.672,67.474Z" transform="translate(-341.816 -40.462)" fill="#499bd5"/>
    <path id="Контур_35" data-name="Контур 35" d="M39.67,34.927l-6.386-3.665V0L30.445,3.1l-4.9,5.357-2.838,3.1V25.14l-1.419-.821-1.455.821V15.495l-2.838-1.685L12.063,10.9,9.225,9.206V31.262L2.838,34.927,0,36.57,2.838,38.21l6.386,3.668,2.838,1.643,4.921,2.833,1.419.821L19.822,48V28.423l1.419-.821,1.419.821V48l1.419-.821,1.419-.821,4.921-2.833,2.838-1.643,6.386-3.668,2.838-1.639ZM9.225,38.6l-3.52-2.029,3.52-2.025Zm7.77,4.476-4.921-2.833V32.9l4.921-2.833Zm0-16.288-4.932,2.836V14.206l4.921,2.907ZM30.477,40.238l-4.921,2.833V30.066L30.477,32.9Zm0-10.623-4.932-2.833V12.662l4.907-5.354Zm2.838,8.98V34.541l3.52,2.029Z" fill="#2c53a4"/>
  </g>
</svg>
