<svg id="printer-line" xmlns="http://www.w3.org/2000/svg" width="20" height="20" viewBox="0 0 20 20">
  <path id="Контур_153" data-name="Контур 153" d="M0,0H20V20H0Z" fill="none"/>
  <path id="Контур_154" data-name="Контур 154" d="M5.342,16.2H2.835A.835.835,0,0,1,2,15.368V7.013a.835.835,0,0,1,.835-.835H5.342V2.835A.835.835,0,0,1,6.177,2h8.355a.835.835,0,0,1,.835.835V6.177h2.506a.835.835,0,0,1,.835.835v8.355a.835.835,0,0,1-.835.835H15.368v1.671a.835.835,0,0,1-.835.835H6.177a.835.835,0,0,1-.835-.835Zm0-1.671V13.7a.835.835,0,0,1,.835-.835h8.355a.835.835,0,0,1,.835.835v.835h1.671V7.848H3.671v6.684ZM7.013,3.671V6.177H13.7V3.671Zm0,10.861v2.506H13.7V14.532ZM4.506,8.684H7.013v1.671H4.506Z" transform="translate(-0.355 -0.355)"/>
</svg>
