<svg xmlns="http://www.w3.org/2000/svg" xmlns:xlink="http://www.w3.org/1999/xlink" width="18" height="18" viewBox="0 0 18 18">
  <defs>
    <clipPath id="clip-path">
      <rect id="Прямоугольник_1980" data-name="Прямоугольник 1980" width="18" height="18" transform="translate(598 2318)" fill="#d4d4d4"/>
    </clipPath>
  </defs>
  <g id="Группа_масок_278" data-name="Группа масок 278" transform="translate(-598 -2318)" clip-path="url(#clip-path)">
    <path id="Next_to_you_Queen_Квартиры_в_аренду_в_г._Majorstuen_Осло_Норвегия-21" data-name="Next to you Queen — Квартиры в аренду в г. Majorstuen, Осло, Норвегия-21" d="M15.6.6a3,3,0,0,1,3,3c0,3.833-.955,7.912-2.4,8.816V18.6H15V12.416c-1.418-.887-2.365-4.837-2.4-8.609V3.6l0-.13A3,3,0,0,1,15.6.6ZM10.2.6V11.471A3.5,3.5,0,0,1,12.6,15c0,1.962-1.31,3.6-3,3.6s-3-1.638-3-3.6A3.5,3.5,0,0,1,9,11.471V.6Zm-9,0h.6C4.482.6,5.96,4.419,6,11.7v.9H2.4v6H1.2Zm8.4,12A2.173,2.173,0,0,0,7.8,15a2.173,2.173,0,0,0,1.8,2.4A2.173,2.173,0,0,0,11.4,15,2.173,2.173,0,0,0,9.6,12.6ZM2.4,1.943V11.4H4.8l-.01-.578-.016-.569C4.6,5.494,3.741,2.774,2.534,2.018l-.072-.042ZM13.8,3.494l0,.106v.186A20.963,20.963,0,0,0,15,10.62V1.9a1.8,1.8,0,0,0-1.2,1.592ZM16.2,1.9v8.716A21.074,21.074,0,0,0,17.4,3.6a1.8,1.8,0,0,0-1.2-1.7Z" transform="translate(597.1 2317.4)"/>
  </g>
</svg>
