<svg xmlns="http://www.w3.org/2000/svg" xmlns:xlink="http://www.w3.org/1999/xlink" width="20" height="20" viewBox="0 0 20 20">
  <defs>
    <clipPath id="clip-path">
      <rect id="Прямоугольник_2064" data-name="Прямоугольник 2064" width="20" height="20" transform="translate(0 0.5)" fill="#d4d4d4"/>
    </clipPath>
  </defs>
  <g id="Группа_масок_322" data-name="Группа масок 322" transform="translate(0 -0.5)" clip-path="url(#clip-path)">
    <g id="layout-4-line" transform="translate(0)">
      <path id="Контур_1285" data-name="Контур 1285" d="M0,0H20V20H0Z" fill="none"/>
      <path id="Контур_1286" data-name="Контур 1286" d="M17.167,3A.833.833,0,0,1,18,3.833V17.167a.833.833,0,0,1-.833.833H3.833A.833.833,0,0,1,3,17.167V3.833A.833.833,0,0,1,3.833,3Zm-10,8.333h-2.5v5h2.5Zm1.667,5h7.5V4.667h-7.5ZM7.167,4.667h-2.5v5h2.5Z" transform="translate(-0.5 -0.5)"/>
    </g>
  </g>
</svg>
