<svg xmlns="http://www.w3.org/2000/svg" xmlns:xlink="http://www.w3.org/1999/xlink" width="20" height="20" viewBox="0 0 20 20">
  <defs>
    <clipPath id="clip-path">
      <rect id="Прямоугольник_2066" data-name="Прямоугольник 2066" width="20" height="20" transform="translate(0 -0.167)" fill="#d4d4d4"/>
    </clipPath>
  </defs>
  <g id="Группа_масок_324" data-name="Группа масок 324" transform="translate(0 0.167)" clip-path="url(#clip-path)">
    <g id="layout-4-line">
      <path id="Контур_1289" data-name="Контур 1289" d="M20,0H0V20H20Z" fill="none"/>
      <path id="Контур_1290" data-name="Контур 1290" d="M3.833,3A.833.833,0,0,0,3,3.833V17.167A.833.833,0,0,0,3.833,18H17.167A.833.833,0,0,0,18,17.167V3.833A.833.833,0,0,0,17.167,3Zm10,8.333h2.5v5h-2.5Zm-1.667,5h-7.5V4.667h7.5ZM13.833,4.667h2.5v5h-2.5Z" transform="translate(-0.5 -0.5)"/>
    </g>
  </g>
</svg>
