<svg xmlns="http://www.w3.org/2000/svg" xmlns:xlink="http://www.w3.org/1999/xlink" width="18" height="18" viewBox="0 0 18 18">
  <defs>
    <clipPath id="clip-path">
      <rect id="Прямоугольник_1985" data-name="Прямоугольник 1985" width="18" height="18" transform="translate(598 2398)" fill="#d4d4d4"/>
    </clipPath>
  </defs>
  <g id="Группа_масок_283" data-name="Группа масок 283" transform="translate(-598 -2398)" clip-path="url(#clip-path)">
    <g id="store-line" transform="translate(598 2398)">
      <path id="Контур_1233" data-name="Контур 1233" d="M0,0H18V18H0Z" fill="none"/>
      <path id="Контур_1234" data-name="Контур 1234" d="M15.75,8.734V15.75a.75.75,0,0,1-.75.75H3a.75.75,0,0,1-.75-.75V8.734A2.989,2.989,0,0,1,1.5,6.75V2.25a.75.75,0,0,1,.75-.75h13.5a.75.75,0,0,1,.75.75v4.5A2.992,2.992,0,0,1,15.75,8.734Zm-1.5.921a3.005,3.005,0,0,1-3-.921,3,3,0,0,1-4.5,0,2.992,2.992,0,0,1-3,.921V15h10.5V9.656ZM10.5,6.75a.75.75,0,0,1,1.5,0,1.5,1.5,0,0,0,3,0V3H3V6.75a1.5,1.5,0,0,0,3,0,.75.75,0,0,1,1.5,0,1.5,1.5,0,0,0,3,0Z"/>
    </g>
  </g>
</svg>
