<svg xmlns="http://www.w3.org/2000/svg" xmlns:xlink="http://www.w3.org/1999/xlink" width="20" height="20" viewBox="0 0 20 20">
  <defs>
    <clipPath id="clip-path">
      <rect id="Прямоугольник_252" data-name="Прямоугольник 252" width="20" height="20" transform="translate(638 1204)" fill="#d4d4d4"/>
    </clipPath>
  </defs>
  <g id="Группа_масок_74" data-name="Группа масок 74" transform="translate(-638 -1204)" clip-path="url(#clip-path)">
    <g id="medal-line_1_" data-name="medal-line (1)" transform="translate(638 1204)">
      <path id="Контур_151" data-name="Контур 151" d="M0,0H20V20H0Z" fill="none"/>
      <path id="Контур_152" data-name="Контур 152" d="M10,5.833A6.667,6.667,0,1,1,3.333,12.5,6.667,6.667,0,0,1,10,5.833ZM10,7.5a5,5,0,1,0,5,5A5,5,0,0,0,10,7.5Zm0,1.25,1.1,2.233,2.464.358-1.783,1.738.421,2.455L10,14.375,7.8,15.533l.421-2.454L6.433,11.341,8.9,10.982Zm5-7.083v2.5l-1.136.948a8.279,8.279,0,0,0-3.031-.907V1.667Zm-5.833,0V4.207a8.279,8.279,0,0,0-3.03.907L5,4.167v-2.5Z"/>
    </g>
  </g>
</svg>
