<svg xmlns="http://www.w3.org/2000/svg" xmlns:xlink="http://www.w3.org/1999/xlink" width="20" height="20" viewBox="0 0 20 20">
  <defs>
    <clipPath id="clip-path">
      <rect id="Прямоугольник_2045" data-name="Прямоугольник 2045" width="20" height="20" transform="translate(131.429 485)" fill="#d4d4d4"/>
    </clipPath>
  </defs>
  <g id="Группа_масок_309" data-name="Группа масок 309" transform="translate(-131.429 -485)" clip-path="url(#clip-path)">
    <g id="layout-top-line" transform="translate(131.43 485)">
      <path id="Контур_1259" data-name="Контур 1259" d="M0,0H20V20H0Z" fill="none"/>
      <path id="Контур_1260" data-name="Контур 1260" d="M17.833,3a.833.833,0,0,1,.833.833V17.166a.833.833,0,0,1-.833.833h-15A.833.833,0,0,1,2,17.166V3.833A.833.833,0,0,1,2.833,3ZM3.667,10.5v5.833H17V10.5Zm0-1.667H17V4.667H3.667Z" transform="translate(-0.333 -0.5)"/>
    </g>
  </g>
</svg>
