<svg xmlns="http://www.w3.org/2000/svg" xmlns:xlink="http://www.w3.org/1999/xlink" width="20" height="20" viewBox="0 0 20 20">
  <defs>
    <clipPath id="clip-path">
      <rect id="Прямоугольник_2075" data-name="Прямоугольник 2075" width="20" height="20" transform="translate(131.158 1105.158)" fill="#d4d4d4"/>
    </clipPath>
  </defs>
  <g id="Группа_масок_329" data-name="Группа масок 329" transform="translate(-131.158 -1105.158)" clip-path="url(#clip-path)">
    <g id="building-4-line_1_" data-name="building-4-line (1)" transform="translate(131.158 1105.158)">
      <path id="Контур_1299" data-name="Контур 1299" d="M0,0H20V20H0Z" fill="none"/>
      <path id="Контур_1300" data-name="Контур 1300" d="M17.666,17h1.667v1.667H1V17H2.667V2.833A.833.833,0,0,1,3.5,2H16.833a.833.833,0,0,1,.833.833ZM16,17V3.667H4.333V17ZM6.833,9.5h2.5v1.667h-2.5Zm0-3.333h2.5V7.833h-2.5Zm0,6.666h2.5V14.5h-2.5Zm4.167,0h2.5V14.5H11ZM11,9.5h2.5v1.667H11Zm0-3.333h2.5V7.833H11Z" transform="translate(-0.167 -0.333)"/>
    </g>
  </g>
</svg>
