<svg xmlns="http://www.w3.org/2000/svg" xmlns:xlink="http://www.w3.org/1999/xlink" width="18" height="18" viewBox="0 0 18 18">
  <defs>
    <clipPath id="clip-path">
      <rect id="Прямоугольник_1981" data-name="Прямоугольник 1981" width="18" height="18" transform="translate(598 2278)" fill="#d4d4d4"/>
    </clipPath>
  </defs>
  <g id="Группа_масок_279" data-name="Группа масок 279" transform="translate(-598 -2278)" clip-path="url(#clip-path)">
    <path id="Next_to_you_Queen_Квартиры_в_аренду_в_г._Majorstuen_Осло_Норвегия-25" data-name="Next to you Queen — Квартиры в аренду в г. Majorstuen, Осло, Норвегия-25" d="M15.62,1.736a1.157,1.157,0,0,1,1.154,1.07l0,.087v8.571l1.406,3.75a1.157,1.157,0,0,1-.51,1.412l-.084.043-.083.035a1.157,1.157,0,0,1-.3.069l-.1,0H1.413A1.157,1.157,0,0,1,.3,15.312l.032-.1,1.406-3.748V2.893a1.157,1.157,0,0,1,.982-1.144l.089-.01.086,0ZM15.8,12.149H2.714l-1.3,3.471H17.1Zm-4.805,1.157v1.157H7.521V13.306ZM15.62,2.893H2.893v8.1H15.619ZM9.256,4.05a.579.579,0,1,1-.579.579A.579.579,0,0,1,9.256,4.05Z" transform="translate(597.744 2277.744)"/>
  </g>
</svg>
