<svg xmlns="http://www.w3.org/2000/svg" xmlns:xlink="http://www.w3.org/1999/xlink" width="18" height="18" viewBox="0 0 18 18">
  <defs>
    <clipPath id="clip-path">
      <rect id="Прямоугольник_1972" data-name="Прямоугольник 1972" width="18" height="18" transform="translate(518.234 946.234)" fill="#d4d4d4"/>
    </clipPath>
  </defs>
  <g id="Группа_масок_271" data-name="Группа масок 271" transform="translate(-518.234 -946.234)" clip-path="url(#clip-path)">
    <g id="parking-box-line" transform="translate(518.044 946.044)">
      <path id="Контур_1219" data-name="Контур 1219" d="M0,0H18.38V18.38H0Z" fill="none"/>
      <path id="Контур_1220" data-name="Контур 1220" d="M3.266,2.5H15.519a.766.766,0,0,1,.766.766V15.519a.766.766,0,0,1-.766.766H3.266a.766.766,0,0,1-.766-.766V3.266A.766.766,0,0,1,3.266,2.5Zm.766,1.532V14.753H14.753V4.032ZM7.095,5.563h2.68a2.68,2.68,0,0,1,0,5.361H8.627v2.3H7.095ZM8.627,7.095v2.3H9.775a1.149,1.149,0,1,0,0-2.3Z" transform="translate(-0.203 -0.203)"/>
    </g>
  </g>
</svg>
