<svg xmlns="http://www.w3.org/2000/svg" xmlns:xlink="http://www.w3.org/1999/xlink" width="20" height="20" viewBox="0 0 20 20">
  <defs>
    <clipPath id="clip-path">
      <rect id="Прямоугольник_2078" data-name="Прямоугольник 2078" width="20" height="20" transform="translate(130.934 1202.934)" fill="#d4d4d4"/>
    </clipPath>
  </defs>
  <g id="Группа_масок_331" data-name="Группа масок 331" transform="translate(-130.934 -1202.934)" clip-path="url(#clip-path)">
    <g id="building-line_1_" data-name="building-line (1)" transform="translate(130.934 1202.934)">
      <path id="Контур_1303" data-name="Контур 1303" d="M0,0H20V20H0Z" fill="none"/>
      <path id="Контур_1304" data-name="Контур 1304" d="M17.667,16.333h1.667V18H1V16.333H2.667V3.833A.833.833,0,0,1,3.5,3h8.333a.833.833,0,0,1,.833.833v12.5H16V9.667H14.333V8h2.5a.833.833,0,0,1,.833.833ZM4.333,4.667V16.333H11V4.667ZM6,9.667H9.333v1.667H6ZM6,6.333H9.333V8H6Z" transform="translate(-0.167 -0.5)"/>
    </g>
  </g>
</svg>
