<svg xmlns="http://www.w3.org/2000/svg" xmlns:xlink="http://www.w3.org/1999/xlink" width="18" height="18" viewBox="0 0 18 18">
  <defs>
    <clipPath id="clip-path">
      <rect id="Прямоугольник_1983" data-name="Прямоугольник 1983" width="18" height="18" transform="translate(128 2398)" fill="#d4d4d4"/>
    </clipPath>
  </defs>
  <g id="Группа_масок_281" data-name="Группа масок 281" transform="translate(-128 -2398)" clip-path="url(#clip-path)">
    <path id="Next_to_you_Queen_Квартиры_в_аренду_в_г._Majorstuen_Осло_Норвегия-13" data-name="Next to you Queen — Квартиры в аренду в г. Majorstuen, Осло, Норвегия-13" d="M9.019,1.048a.6.6,0,0,1,1.164.009,10.77,10.77,0,0,0,2.768,5.191,10.776,10.776,0,0,0,5.191,2.769.6.6,0,0,1,0,1.165,10.776,10.776,0,0,0-5.191,2.769,10.776,10.776,0,0,0-2.769,5.191.6.6,0,0,1-1.165,0,10.776,10.776,0,0,0-2.769-5.191,10.776,10.776,0,0,0-5.191-2.769.6.6,0,0,1-.009-1.163A11.068,11.068,0,0,0,6.206,6.205,11.064,11.064,0,0,0,9.019,1.048Zm.567,2.111-.08.195a11.633,11.633,0,0,1-2.063,3.29l-.2.214-.191.2A11.386,11.386,0,0,1,3.639,9.382l-.285.124-.195.08.211.084a11.315,11.315,0,0,1,3.316,2.044l.215.2.2.191a11.051,11.051,0,0,1,2.312,3.439l.122.288L9.6,16l.069-.175a11.33,11.33,0,0,1,2.045-3.316l.2-.215.191-.2a11.051,11.051,0,0,1,3.439-2.312l.288-.122.175-.069-.176-.069A11.167,11.167,0,0,1,12.1,7.1,11.051,11.051,0,0,1,9.791,3.658L9.669,3.37l-.083-.211ZM16.21.824a.3.3,0,0,1,.581,0,2.138,2.138,0,0,0,.548,1.032,2.138,2.138,0,0,0,1.032.548.3.3,0,0,1,0,.583,2.138,2.138,0,0,0-1.032.548,2.138,2.138,0,0,0-.548,1.032.3.3,0,0,1-.583,0,2.138,2.138,0,0,0-.548-1.032,2.138,2.138,0,0,0-1.032-.548.3.3,0,0,1,0-.582,2.2,2.2,0,0,0,1.027-.558A2.2,2.2,0,0,0,16.21.824Z" transform="translate(127.4 2397.4)"/>
  </g>
</svg>
