<svg xmlns="http://www.w3.org/2000/svg" xmlns:xlink="http://www.w3.org/1999/xlink" width="18" height="18" viewBox="0 0 18 18">
  <defs>
    <clipPath id="clip-path">
      <rect id="Прямоугольник_1975" data-name="Прямоугольник 1975" width="18" height="18" transform="translate(127.934 2276.934)" fill="#d4d4d4"/>
    </clipPath>
  </defs>
  <g id="Группа_масок_273" data-name="Группа масок 273" transform="translate(-127.935 -2276.934)" clip-path="url(#clip-path)">
    <path id="Classy_modern_bright_aptm_at_the_heart_of_Oslo_Квартиры_в_аренду_в_г._Majorstuen_Осло_Норвегия-21" data-name="Classy, modern, bright aptm at the heart of Oslo — Квартиры в аренду в г. Majorstuen, Осло, Норвегия-21" d="M18.012.667a.6.6,0,0,1,.594.528l0,.07V18.012a.6.6,0,0,1-.528.594l-.07,0H1.265a.6.6,0,0,1-.594-.528l0-.07V1.265A.6.6,0,0,1,1.195.671l.07,0ZM1.863,1.863V17.413H9.04V1.863ZM6.05,7.246v3.938l1.072-1.072.846.846L5.874,13.051a.6.6,0,0,1-.789.05l-.056-.05L2.935,10.958l.846-.846,1.072,1.072V7.246Zm7.409-.9a.6.6,0,0,1,.733,0l.056.05,2.093,2.093-.846.846L14.423,8.267v3.764h-1.2V8.267L12.154,9.339l-.846-.846L13.4,6.4ZM10.236,17.413h7.177V1.863H10.236Z" transform="translate(127.334 2276.334)"/>
  </g>
</svg>
