<svg xmlns="http://www.w3.org/2000/svg" xmlns:xlink="http://www.w3.org/1999/xlink" width="20" height="20" viewBox="0 0 20 20">
  <defs>
    <clipPath id="clip-path">
      <rect id="Прямоугольник_2046" data-name="Прямоугольник 2046" width="20" height="20" transform="translate(131 436)" fill="#d4d4d4"/>
    </clipPath>
  </defs>
  <g id="Группа_масок_310" data-name="Группа масок 310" transform="translate(-131 -436)" clip-path="url(#clip-path)">
    <g id="layout-3-line_1_" data-name="layout-3-line (1)" transform="translate(131 436)">
      <path id="Контур_1261" data-name="Контур 1261" d="M0,0H20V20H0Z" fill="none"/>
      <path id="Контур_1262" data-name="Контур 1262" d="M3.833,18A.833.833,0,0,1,3,17.167V3.833A.833.833,0,0,1,3.833,3H17.167A.833.833,0,0,1,18,3.833V17.167a.833.833,0,0,1-.833.833ZM7.167,8.833h-2.5v7.5h2.5Zm9.167,0h-7.5v7.5h7.5Zm0-4.167H4.667v2.5H16.333Z" transform="translate(-0.5 -0.5)"/>
    </g>
  </g>
</svg>
