<svg xmlns="http://www.w3.org/2000/svg" xmlns:xlink="http://www.w3.org/1999/xlink" width="18" height="18" viewBox="0 0 18 18">
  <defs>
    <clipPath id="clip-path">
      <rect id="Прямоугольник_1982" data-name="Прямоугольник 1982" width="18" height="18" transform="translate(598 2358)" fill="#d4d4d4"/>
    </clipPath>
  </defs>
  <g id="Группа_масок_280" data-name="Группа масок 280" transform="translate(-598 -2358)" clip-path="url(#clip-path)">
    <g id="building-line" transform="translate(598 2358)">
      <path id="Контур_1229" data-name="Контур 1229" d="M0,0H18V18H0Z" fill="none"/>
      <path id="Контур_1230" data-name="Контур 1230" d="M15.75,14.25h1.5v1.5H.75v-1.5h1.5V3A.75.75,0,0,1,3,2.25h7.5a.75.75,0,0,1,.75.75V14.25h3v-6h-1.5V6.75H15a.75.75,0,0,1,.75.75Zm-12-10.5v10.5h6V3.75Zm1.5,4.5h3v1.5h-3Zm0-3h3v1.5h-3Z"/>
    </g>
  </g>
</svg>
