<svg xmlns="http://www.w3.org/2000/svg" xmlns:xlink="http://www.w3.org/1999/xlink" width="14" height="14" viewBox="0 0 14 14">
  <defs>
    <clipPath id="clip-path">
      <rect id="Прямоугольник_153" data-name="Прямоугольник 153" width="14" height="14" transform="translate(1024 640)" fill="#d4d4d4"/>
    </clipPath>
  </defs>
  <g id="Группа_масок_31" data-name="Группа масок 31" transform="translate(-1024 -640)" clip-path="url(#clip-path)">
    <g id="image-line_1_" data-name="image-line (1)" transform="translate(1024 640)">
      <path id="Контур_77" data-name="Контур 77" d="M0,0H14V14H0Z" fill="none"/>
      <path id="Контур_78" data-name="Контур 78" d="M2.816,12.25l-.012.012-.012-.012H1.745a.579.579,0,0,1-.579-.579V2.329a.583.583,0,0,1,.579-.579H12.255a.579.579,0,0,1,.579.579v9.341a.583.583,0,0,1-.579.579Zm8.85-3.5V2.917H2.333v8.167L8.167,5.25Zm0,1.65-3.5-3.5L3.983,11.083h7.684Zm-7-3.983A1.167,1.167,0,1,1,5.833,5.25,1.167,1.167,0,0,1,4.667,6.417Z"/>
    </g>
  </g>
</svg>
