<svg xmlns="http://www.w3.org/2000/svg" xmlns:xlink="http://www.w3.org/1999/xlink" width="18" height="18" viewBox="0 0 18 18">
  <defs>
    <clipPath id="clip-path">
      <rect id="Прямоугольник_1977" data-name="Прямоугольник 1977" width="18" height="18" transform="translate(378 2278)" fill="#d4d4d4"/>
    </clipPath>
  </defs>
  <g id="Группа_масок_275" data-name="Группа масок 275" transform="translate(-378 -2278)" clip-path="url(#clip-path)">
    <g id="wifi-line" transform="translate(378 2278)">
      <path id="Контур_1223" data-name="Контур 1223" d="M0,0H18V18H0Z" fill="none"/>
      <path id="Контур_1224" data-name="Контур 1224" d="M.517,5.248a13.5,13.5,0,0,1,16.965,0l-.942,1.167a12,12,0,0,0-15.081,0ZM2.873,8.165a9.752,9.752,0,0,1,12.253,0l-.943,1.167a8.252,8.252,0,0,0-10.368,0L2.873,8.164ZM5.23,11.083a6,6,0,0,1,7.541,0l-.943,1.167a4.5,4.5,0,0,0-5.655,0L5.23,11.082ZM7.586,14a2.249,2.249,0,0,1,2.827,0L9,15.75,7.586,14Z"/>
    </g>
  </g>
</svg>
