<?xml version="1.0" standalone="no"?>
<!DOCTYPE svg PUBLIC "-//W3C//DTD SVG 1.1//EN" "http://www.w3.org/Graphics/SVG/1.1/DTD/svg11.dtd" >
<svg xmlns="http://www.w3.org/2000/svg">
<metadata>Generated by IcoMoon</metadata>
<defs>
<font id="icomoon" horiz-adv-x="1024">
<font-face units-per-em="1024" ascent="960" descent="-64" />
<missing-glyph horiz-adv-x="1024" />
<glyph unicode="&#x20;" horiz-adv-x="512" d="" />
<glyph unicode="&#xe900;" glyph-name="panoramic-window" d="M989.85 832c1.008 0.113 2.179 0.176 3.363 0.176 14.414 0 26.617-9.469 30.725-22.527l0.062-0.228v-719.822c-2.030-14.541-14.385-25.611-29.324-25.611-0.293 0-0.585 0.005-0.875 0.013l0.043-0.001h-959.693c-1.008-0.113-2.179-0.176-3.363-0.176-14.414 0-26.617 9.469-30.725 22.527l-0.062 0.228v719.822c2.030 14.541 14.385 25.611 29.324 25.611 0.293 0 0.585-0.005 0.875-0.013l-0.043 0.001h3.994zM68.249 780.799v-665.601h424.705v665.601zM492.954 115.199h462.797v665.601h-462.797z" />
<glyph unicode="&#xe901;" glyph-name="elevator" d="M989.995 960c17.448-0.011 31.836-13.103 33.886-30l0.016-0.164v-959.933c-0.011-17.448-13.103-31.836-30-33.886l-0.164-0.016h-959.728c-17.448 0.011-31.836 13.103-33.886 30l-0.016 0.164v959.728c0 0.003 0 0.006 0 0.009 0 17.367 12.96 31.707 29.737 33.875l0.171 0.018h3.995zM68.165 891.733v-887.672h409.702v887.672zM307.175 584.456v-224.824l61.455 61.199 48.294-48.294-119.787-119.48c-6.18-6.169-14.711-9.983-24.133-9.983-7.923 0-15.216 2.698-21.010 7.224l0.075-0.057-3.227 2.817-119.224 119.48 48.294 48.294 61.455-61.199v224.824zM730.091 635.669c5.716 4.463 13.004 7.156 20.92 7.156s15.204-2.693 20.996-7.213l-0.076 0.057 3.227-2.817 119.48-119.48-48.294-48.294-61.199 61.097v-215.094h-68.267v215.094l-61.455-61.455-48.294 48.294 119.48 119.48zM546.134 4.062h409.702v887.672h-409.702z" />
<glyph unicode="&#xe902;" glyph-name="bedroom" d="M877.898 923.537c0.001 0 0.003 0 0.004 0 38.47 0 70.006-29.684 72.955-67.396l0.016-0.252v-292.308l67.546-202.536c1.665-4.786 3.125-10.544 4.111-16.463l0.088-0.64 1.075-8.757 0.307-8.757v-353.913h-72.975v73.129h-877.896v-73.18h-73.129v353.913c0 0.006 0 0.012 0 0.019 0 9.302 1.158 18.334 3.338 26.958l-0.162-0.757 2.458 8.501 67.495 202.485v286.777c0.011 36.484 26.72 66.727 61.651 72.254l0.415 0.054 5.633 0.666h5.428zM951.076 265.128h-877.947v-146.307h877.896zM900.327 484.614h-776.704l-48.496-146.359h873.901zM877.898 850.357h-731.588v-292.615h73.129v146.307c0 0 0 0 0 0.001 0 38.488 29.712 70.035 67.449 72.959l0.251 0.016h444.403c0.066 0 0.143 0 0.221 0 38.416 0 69.917-29.6 72.942-67.237l0.017-0.258v-151.787h73.18zM475.488 704.050h-182.871v-146.307h182.871zM731.539 704.050h-182.871v-146.307h182.871z" />
<glyph unicode="&#xe903;" glyph-name="wifi" d="M0 674.149c138.438 112.528 316.885 180.678 511.25 180.678s372.811-68.15 512.75-181.859l-1.499 1.18-56.793-70.517c-123.068 100.028-281.702 160.609-454.484 160.609s-331.415-60.58-455.818-161.658l1.334 1.050zM142.010 498.289c99.997 81.26 228.885 130.473 369.267 130.473s269.269-49.213 370.351-131.327l-1.085 0.854-56.793-70.517c-84.611 68.753-193.666 110.391-312.446 110.391s-227.835-41.638-313.364-111.113l0.919 0.723-56.848 70.517zM284.021 322.43c61.53 50.013 140.842 80.301 227.229 80.301s165.699-30.289 227.895-80.826l-0.667 0.525-56.848-70.517c-46.145 37.505-105.623 60.218-170.408 60.218s-124.263-22.714-170.908-60.612l0.5 0.394-56.793 70.517zM426.033 146.571c23.075 18.759 52.819 30.12 85.217 30.12s62.143-11.362 85.467-30.317l-0.25 0.197-85.163-105.397-85.217 105.505z" />
<glyph unicode="&#xe904;" glyph-name="playground" d="M512 960c282.769 0 512-229.231 512-512s-229.231-512-512-512c-282.769 0-512 229.231-512 512v0c0 282.769 229.231 512 512 512v0zM597.527 243.151h-170.995l-70.659-97.14 28.386-87.371c38.16-12.897 82.111-20.34 127.8-20.34s89.64 7.443 130.705 21.183l-2.905-0.842 28.325 87.371-70.659 97.14zM168.659 505.756l-66.173-47.986v-9.77c-0.001-0.272-0.001-0.595-0.001-0.918 0-88.779 28.366-170.933 76.528-237.894l-0.83 1.213h97.878l67.587 93.208-52.472 162.269-122.516 39.876zM855.402 505.756l-122.516-39.815-52.656-162.33 67.587-93.208h97.816c47.519 65.826 76.005 148.131 76.005 237.090 0 0.179 0 0.356 0 0.535v-0.028 9.708l-66.112 48.047zM512 574.142l-119.997-87.248 45.897-141.318h148.261l45.897 141.318zM629.294 840.556l-66.112-48.11v-129.029l137.938-100.212 114.651 37.234 28.386 87.187c-52.491 72.046-126.33 125.732-212.142 152.040l-2.907 0.767zM394.645 840.556c-88.724-27.091-162.564-80.798-214.235-151.697l-0.814-1.172 28.632-87.126 114.651-37.234 137.938 100.212v129.029l-66.173 47.986z" />
<glyph unicode="&#xe905;" glyph-name="security" d="M186.11 792.266v-427.519c0-0.026 0-0.057 0-0.087 0-64.302 32.599-120.988 82.173-154.435l0.661-0.42 242.916-161.981 242.916 161.981c50.265 33.862 82.888 90.565 82.89 154.887v0 427.575l-325.749 72.333zM129.305 874.988l382.611 85.012 382.611-85.012c21.013-4.77 36.465-23.285 36.474-45.41v-464.888c0-0.001 0-0.003 0-0.004 0-96.492-48.935-181.554-123.342-231.723l-0.993-0.631-294.75-196.332-294.527 196.332c-75.422 50.79-124.379 135.857-124.39 232.357v464.889c0 0.005 0 0.013 0 0.020 0 22.073 15.37 40.556 35.992 45.33l0.314 0.061zM511.748 377.873l-136.678-71.606 26.141 152.318-110.594 107.633 152.933 22.342 68.367 138.69 68.423-138.69 152.933-22.342-110.65-107.69 26.084-152.318z" />
<glyph unicode="&#xe906;" glyph-name="restaurant" d="M836.275 960c94.247 0 170.65-76.402 170.65-170.65v0c0-218.061-54.323-450.099-136.55-501.76v-351.59h-68.25v351.795c-80.691 50.432-134.554 275.2-136.448 489.779v19.2c4.086 90.998 78.852 163.226 170.488 163.226 0.039 0 0.078 0 0.117 0h-0.006zM529.075 960v-618.445c80.164-26.884 136.898-101.315 136.898-188.998 0-4.136-0.126-8.243-0.375-12.316l0.027 0.559c0-111.616-74.496-204.8-170.65-204.8s-170.701 93.184-170.701 204.8c-0.223 3.525-0.35 7.645-0.35 11.793 0 87.674 56.737 162.096 135.498 188.553l1.402 0.409v618.445zM17.075 960h34.15c152.576 0 236.698-217.242 238.899-631.654v-51.2h-204.8v-341.146h-68.25zM494.924 277.35c-54.682 0-102.4-59.648-102.4-136.55s47.718-136.55 102.4-136.55 102.4 59.648 102.4 136.55-47.77 136.55-102.4 136.55zM85.324 883.61v-538.010h136.55l-0.563 32.922-0.922 32.41c-9.677 270.643-58.778 425.421-127.386 468.378l-4.25 2.406zM733.875 795.341v-16.589c1.085-139.648 26.003-273.135 70.876-397.065l-2.627 8.303v495.923c-38.31-13.758-65.704-48.665-68.236-90.286l-0.014-0.287zM870.271 885.914v-495.821c43.243 118.742 68.25 255.815 68.25 398.728 0 0.222 0 0.444 0 0.666v-0.035c0 0.008 0 0.017 0 0.026 0 44.312-28.147 82.051-67.537 96.312l-0.713 0.226z" />
<glyph unicode="&#xe907;" glyph-name="working" d="M874.203 878.699c34.76-0.109 63.189-27.075 65.627-61.23l0.012-0.211v-495.774l79.975-214.684c2.648-6.899 4.182-14.881 4.182-23.22 0-24.458-13.192-45.835-32.849-57.405l-0.312-0.17-4.762-2.458-4.762-1.997c-5.029-1.976-10.862-3.39-16.938-3.973l-0.265-0.021-5.888-0.256h-892.22c-21.326 0.017-40.271 10.194-52.26 25.951l-0.118 0.161c-8.503 11.063-13.626 25.109-13.626 40.351 0 6.321 0.881 12.436 2.527 18.23l-0.114-0.469 1.792 5.632 80.129 214.581v490.756c0 0.055 0 0.119 0 0.184 0 32.891 24.023 60.172 55.48 65.252l0.379 0.051 5.12 0.614h5.12zM884.443 282.571h-744.405l-74.036-198.658h892.374zM611.084 216.319v-66.254h-197.634v66.305zM874.203 812.496h-724.026v-463.62h723.975zM512.165 746.243c0.061 0 0.133 0.001 0.205 0.001 18.295 0 33.126-14.831 33.126-33.126s-14.831-33.126-33.126-33.126c-18.295 0-33.126 14.831-33.126 33.126v0c0 0.030 0 0.067 0 0.103 0 18.203 14.727 32.966 32.916 33.024h0.006z" />
<glyph unicode="&#xe908;" glyph-name="search" d="M662.988 235.88c-69.781-54.619-158.802-87.586-255.522-87.586-230.037 0-416.519 186.482-416.519 416.519s186.482 416.519 416.519 416.519c230.037 0 416.519-186.482 416.519-416.519 0-96.72-32.967-185.74-88.275-256.437l0.689 0.915 278.547-277.506-73.932-73.932-277.506 278.027zM407.87 252.54c172.528 0 312.39 139.861 312.39 312.39s-139.861 312.39-312.39 312.39v0c-172.528 0-312.39-139.861-312.39-312.39s139.861-312.39 312.39-312.39v0z" />
<glyph unicode="&#xe909;" glyph-name="kindergarten" d="M479.023 934.257c3.966 14.782 17.244 25.487 33.023 25.487 15.964 0 29.368-10.959 33.102-25.763l0.050-0.236c25.626-115.728 80.969-215.893 157.607-295.389l-0.18 0.187c79.315-76.463 179.475-131.818 291.122-156.714l4.080-0.764c15.092-3.724 26.107-17.145 26.107-33.139s-11.016-29.414-25.873-33.090l-0.234-0.049c-115.727-25.661-215.888-81.016-295.389-157.658l0.188 0.18c-76.463-79.315-131.818-179.475-156.714-291.122l-0.764-4.080c-3.724-15.092-17.145-26.107-33.139-26.107s-29.414 11.016-33.090 25.873l-0.049 0.234c-25.661 115.727-81.016 215.888-157.658 295.389l0.18-0.188c-79.315 76.463-179.475 131.818-291.122 156.714l-4.080 0.764c-15.103 3.738-26.123 17.173-26.123 33.183 0 15.88 10.843 29.227 25.529 33.042l0.237 0.052c114.948 27.633 214.187 83.621 293.382 160.207l-0.176-0.169c76.403 79.002 132.374 178.226 159.109 288.858l0.877 4.296zM511.266 814.242l-4.35-11.004c-30.316-71.965-69.93-133.837-118.26-187.732l0.548 0.621-11.259-12.181-10.85-11.105c-54.724-54.197-119.137-98.732-190.389-130.756l-4.092-1.644-15.764-7.267-11.105-4.555 12.027-4.76c72.589-29.361 135.023-68.563 189.246-116.797l-0.651 0.568 12.232-11.259 11.105-10.902c54.281-54.731 98.588-119.453 129.904-191.15l1.575-4.047 6.909-16.377 3.94-9.929 3.94 9.98c29.392 72.587 68.609 135.018 116.849 189.247l-0.569-0.652 11.259 12.232 10.902 11.105c54.792 54.24 119.584 98.501 191.347 129.752l4.055 1.573 16.377 6.909 9.98 3.94-10.236 3.94c-82.458 33.184-152.917 79.97-212.005 138.254l0.071-0.070c-54.184 54.869-98.384 119.749-129.551 191.594l-1.57 4.063-6.909 16.377-4.708 11.976zM887.945 947.103c1.918 7.467 8.591 12.898 16.531 12.898s14.612-5.43 16.505-12.779l0.026-0.118c5.008-23.082 15.976-43.077 31.208-58.949l-0.040 0.042c15.778-15.162 35.698-26.122 57.895-31.018l0.807-0.149c7.493-1.922 12.943-8.615 12.943-16.582s-5.45-14.66-12.824-16.556l-0.119-0.026c-23.005-5.045-42.926-16.006-58.743-31.206l0.040 0.039c-15.162-15.778-26.122-35.698-31.018-57.895l-0.149-0.807c-1.922-7.493-8.615-12.943-16.582-12.943s-14.66 5.45-16.556 12.824l-0.026 0.119c-5.045 23.005-16.006 42.926-31.206 58.743l0.039-0.040c-15.778 15.162-35.698 26.122-57.895 31.018l-0.807 0.149c-7.442 1.958-12.842 8.626-12.842 16.556s5.4 14.598 12.722 16.529l0.119 0.027c22.884 5.457 42.649 16.561 58.434 31.768l-0.039-0.037c15.17 15.747 26.274 35.513 31.558 57.542l0.173 0.854z" />
<glyph unicode="&#xe90a;" glyph-name="pdf" d="M812.576-26.197v297.941h211.423v-52.358h-149.53v-68.65h130.875v-51.82h-130.875v-125.112zM513.225-26.197v298.48h128.512c0.369 0.003 0.803 0.005 1.239 0.005 15.982 0 31.404-2.396 45.926-6.847l-1.108 0.293c21.142-6.931 38.627-20.18 50.696-37.488l0.212-0.321c9.71-13.697 17.061-29.818 21.051-47.222l0.175-0.908c3.492-14.782 5.568-31.795 5.72-49.269l0.001-0.106c0.063-1.867 0.099-4.063 0.099-6.267 0-34.67-8.899-67.262-24.536-95.617l0.517 1.022c-18.707-33.544-53.973-55.857-94.451-55.857-1.934 0-3.856 0.051-5.765 0.152l0.267-0.011zM573.751 25.705h57.54c0.661-0.025 1.435-0.040 2.215-0.040 27.665 0 51.111 18.066 59.182 43.045l0.123 0.44c6.037 15.892 9.533 34.268 9.533 53.461 0 1.23-0.015 2.458-0.043 3.681l0.004-0.182c0.138 2.327 0.217 5.049 0.217 7.787 0 22.642-5.378 44.027-14.927 62.949l0.367-0.802c-11.057 15.187-28.775 24.944-48.771 24.944-2.8 0-5.555-0.192-8.253-0.562l0.313 0.035h-57.54zM238.168-26.197v298.48h129.963c1.65 0.093 3.58 0.145 5.522 0.145 25.127 0 48.2-8.794 66.309-23.472l-0.196 0.155c16.689-16.274 27.039-38.98 27.039-64.101 0-2.579-0.109-5.132-0.323-7.655l0.022 0.33c0.304-2.806 0.477-6.059 0.477-9.353 0-25.521-10.408-48.613-27.21-65.26l-0.007-0.006c-19.047-13.813-42.888-22.096-68.663-22.096-2.694 0-5.366 0.091-8.015 0.269l0.359-0.019h-63.386v-107.411zM300.020 132.537h58.037c0.933-0.062 2.022-0.096 3.119-0.096 11.852 0 22.749 4.098 31.349 10.954l-0.102-0.079c7.617 7.727 12.32 18.342 12.32 30.056 0 1.357-0.063 2.699-0.186 4.024l0.013-0.17c0.133 1.228 0.209 2.652 0.209 4.094 0 11.409-4.734 21.715-12.343 29.058l-0.012 0.011c-8.65 6.279-19.477 10.044-31.186 10.044-1.119 0-2.231-0.034-3.331-0.102l0.151 0.007h-58.037zM30.559 197.953l-18.324 9.285c-7.442 5.323-12.236 13.938-12.236 23.673 0 2.956 0.442 5.808 1.263 8.494l-0.054-0.206c7.13 34.864 50.078 78.765 114.75 117.484 7.71 4.436 40.253 21.764 41.704 22.469l18.904 10.074c18.448 31.423 38.761 68.65 61.23 112.427l2.737 5.265c21.101 41.456 45.27 88.838 64.422 135.808l7.007 16.582c-26.822 102.478-41.456 181.783-27.402 234.721 6.493 16.67 22.419 28.268 41.053 28.268 1.323 0 2.635-0.058 3.928-0.173l-0.168 0.012h0.373l11.649-0.373c18.244-0.796 33.454-12.935 38.801-29.504l0.084-0.302 1.948-5.265c1.536-3.755 2.636-8.11 3.092-12.653l0.016-0.198c-0.352-63.863-6.689-126.020-18.476-186.226l1.022 6.267c-1.119-5.016-2.281-9.949-3.773-15.587 21.91-60.363 55.74-111.773 98.927-153.57l0.109-0.105c16.049-14.026 34.041-26.57 53.328-37.033l1.56-0.775c35.124 5.462 75.636 8.583 116.877 8.583 0.491 0 0.982 0 1.473-0.001h-0.076c4.832 0.542 10.433 0.852 16.106 0.852 30.529 0 58.966-8.958 82.824-24.388l-0.599 0.362c5.34-4.937 9.222-11.377 10.976-18.649l0.052-0.255c0.918-4.613 1.443-9.916 1.443-15.34 0-14.788-3.903-28.665-10.735-40.656l0.212 0.405c-5.444-7.613-13.343-13.167-22.524-15.527l-0.276-0.060c-6.53-1.612-14.026-2.536-21.738-2.536-0.417 0-0.833 0.003-1.248 0.008l0.063-0.001c-72.517 6.252-138.726 28.405-196.707 62.935l2.114-1.166c-102.292-15.99-192.334-38.061-279.302-66.877l12.163 3.491c-73.791-128.512-127.434-186.218-173.533-186.218-9.166 0.089-17.785 2.347-25.396 6.284l0.315-0.148zM136.478 335.71c-37.737-28.988-68.334-65.31-90.030-107.004l-0.841-1.776c22.676 10.322 57.084 42.989 108.531 125.195-7.007-6.675-14.634-13.929-17.701-16.458zM586.975 452.159c31.113-16.5 67.425-27.986 105.908-32.293l1.379-0.125c0.557-0.017 1.211-0.026 1.868-0.026 8.639 0 16.902 1.606 24.508 4.536l-0.466-0.158c4.684 2.819 4.146 16.582-22.137 23.34-15.383 4.468-33.054 7.037-51.325 7.037-3.63 0-7.236-0.102-10.816-0.302l0.497 0.022c-14.841 0-31.341-0.829-49.457-2.073zM282.11 478.649c-10.903-20.728-21.639-40.253-31.962-58.66 54.959 21.345 120.618 40.162 188.333 53.201l7.419 1.189c-5.016 4.146-9.949 7.918-14.551 11.69-37.29 32.153-68.327 70.317-91.88 113.175l-1.063 2.112c-18.946-49-37.881-89.42-59.154-128.382l2.816 5.632zM330.945 845.406c-0.001-0.285-0.001-0.623-0.001-0.96 0-34.175 4.539-67.289 13.047-98.774l-0.609 2.645c11.232 20.378 17.843 44.668 17.843 70.5 0 2.586-0.067 5.157-0.197 7.711l0.015-0.359c-0.705 35.072-9.161 72.298-23.92 72.298-6.757-0.208-6.218-53.146-6.218-53.146z" />
<glyph unicode="&#xe90b;" glyph-name="add-photo" d="M884.365 354.912v-139.635h139.635v-93.095h-139.635v-139.635h-93.095v139.635h-139.635v93.095h139.635v139.635zM884.743 913.452c25.506-0.016 46.178-20.697 46.178-46.205 0-0.004 0-0.010 0-0.014v0.001-419.226h-93.095v372.351h-744.731v-651.58l465.46 465.404 139.635-139.635v-131.676l-139.635 139.635-333.868-333.728h333.868v-93.137h-512.377c-25.509 0.024-46.178 20.707-46.178 46.219v0 745.373c0.18 25.439 20.742 46.015 46.158 46.219h838.585zM279.284 727.277c51.415 0 93.095-41.68 93.095-93.095s-41.68-93.095-93.095-93.095c-51.415 0-93.095 41.68-93.095 93.095v0c0 51.415 41.68 93.095 93.095 93.095v0z" />
<glyph unicode="&#xe90c;" glyph-name="all-right" d="M383.991 255.969l554.646 554.717 85.363-85.292-640.008-640.080-383.992 383.992 85.292 85.504z" />
<glyph unicode="&#xe90d;" glyph-name="area" d="M409.623 493.505v466.495l563.188-307.208v-716.792h-921.623v716.792zM512 787.503v-451.595l-358.435 159.287v-456.818h716.792v553.588l-358.358 195.461z" />
<glyph unicode="&#xe90e;" glyph-name="arrow-down" d="M512 192l-512 512h1024z" />
<glyph unicode="&#xe90f;" glyph-name="build-stairs" d="M930.909 75.636h93.091v-93.091h-1024v93.091h93.091v791.272c0 25.706 20.84 46.546 46.546 46.546v0h744.727c25.706 0 46.546-20.84 46.546-46.546v0zM837.819 75.636v744.727h-651.636v-744.727zM325.818 494.545h139.636v-93.091h-139.636zM325.818 680.726h139.636v-93.091h-139.636zM325.818 308.363h139.636v-93.091h-139.636zM558.546 308.363h139.636v-93.091h-139.636zM558.546 494.545h139.636v-93.091h-139.636zM558.546 680.726h139.636v-93.091h-139.636z" />
<glyph unicode="&#xe910;" glyph-name="building" d="M93.134 80.552v619.203c0 0.003 0 0.008 0 0.012 0 20.007 12.616 37.067 30.328 43.657l0.322 0.105 450.108 163.441c2.367 0.89 5.103 1.405 7.959 1.405 12.84 0 23.249-10.409 23.249-23.249 0-0.003 0-0.005 0-0.009v0-230.395l293.998-97.743c18.656-6.358 31.836-23.728 31.836-44.176 0-0.007 0-0.012 0-0.019v0.001-431.885h93.066v-93.275h-1024v92.926zM186.2 80.552h325.834v704.938l-325.834-118.549zM837.798 80.552v398.304l-232.699 77.636v-475.94z" />
<glyph unicode="&#xe911;" glyph-name="buildings" d="M930.909 122.182h93.091v-93.091h-1024v93.091h93.091v698.182c0 25.706 20.84 46.546 46.546 46.546v0h465.455c25.706 0 46.546-20.84 46.546-46.546v0-698.182h186.182v372.363h-93.091v93.091h139.636c25.706 0 46.546-20.84 46.546-46.546v0zM186.182 773.818v-651.636h372.363v651.636zM279.273 494.546h186.182v-93.091h-186.182zM279.273 680.727h186.182v-93.091h-186.182z" />
<glyph unicode="&#xe912;" glyph-name="calculator" d="M102.4 960h819.2c28.277 0 51.2-22.923 51.2-51.2v0-921.6c0-28.277-22.923-51.2-51.2-51.2v0h-819.2c-28.277 0-51.2 22.923-51.2 51.2v0 921.6c0 28.277 22.923 51.2 51.2 51.2v0zM153.6 857.6v-819.2h716.8v819.2zM256 755.2h512v-204.8h-512zM256 448h102.4v-102.4h-102.4zM256 243.2h102.4v-102.4h-102.4zM460.8 448h102.4v-102.4h-102.4zM460.8 243.2h102.4v-102.4h-102.4zM665.6 448h102.4v-307.2h-102.4z" />
<glyph unicode="&#xe913;" glyph-name="calendar" d="M767.999 857.6h204.8c28.277 0 51.2-22.924 51.2-51.2v0-819.2c0-28.277-22.924-51.2-51.2-51.2v0h-921.599c-28.277 0-51.2 22.924-51.2 51.2v0 819.2c0 28.277 22.924 51.2 51.2 51.2v0h204.8v102.4h102.4v-102.4h307.2v102.4h102.4zM665.6 755.2h-307.2v-102.4h-102.4v102.4h-153.6v-204.8h819.2v204.8h-153.6v-102.4h-102.4zM921.599 448h-819.2v-409.599h819.2z" />
<glyph unicode="&#xe914;" glyph-name="car" d="M810.67 149.334h-597.334v-42.667c0-23.564-19.103-42.667-42.667-42.667v0h-42.667c-23.564 0-42.667 19.103-42.667 42.667v0 320l-53.035 13.227c-18.699 4.8-32.298 21.505-32.299 41.387v0 30.72c0 11.782 9.551 21.333 21.333 21.333v0h64l105.813 246.955c13.39 30.667 43.453 51.712 78.431 51.712 0.027 0 0.053 0 0.080 0h484.689c34.974-0.004 65.032-21.047 78.207-51.163l0.214-0.549 105.899-246.955h64c11.782 0 21.333-9.551 21.333-21.333v0-30.72c-0.001-19.881-13.599-36.587-32.003-41.322l-0.296-0.065-53.035-13.227v-320c0-23.564-19.103-42.667-42.667-42.667v0h-42.667c-23.564 0-42.667 19.103-42.667 42.667v0zM853.336 234.667v213.333h-682.668v-213.333zM233.688 533.334h556.63c23.553 0.015 42.64 19.112 42.64 42.667 0 5.702-1.118 11.142-3.148 16.114l0.103-0.285-61.909 154.837h-512.001l-61.909-154.837c-1.927-4.687-3.045-10.128-3.045-15.829 0-23.555 19.087-42.651 42.638-42.667h0.001zM213.336 405.334q148.267 0 199.936-96.597c1.591-2.914 2.526-6.382 2.526-10.069 0-11.782-9.551-21.333-21.333-21.333-0.003 0-0.006 0-0.009 0h-138.453c-23.564 0-42.667 19.103-42.667 42.667v0zM810.67 405.334v-85.333c0-23.564-19.103-42.667-42.667-42.667v0h-138.453c-11.767 0.019-21.299 9.563-21.299 21.333 0 3.687 0.935 7.156 2.582 10.181l-0.056-0.112q51.499 96.597 199.893 96.597z" />
<glyph unicode="&#xe915;" glyph-name="chat" d="M217.239 313.93l-217.239-170.666v755.741c0 26.917 21.82 48.737 48.737 48.737h731.344c26.917 0 48.737-21.82 48.737-48.737v0-585.075zM183.48 411.461h547.864v438.806h-633.812v-506.324zM341.451 216.457h499.127l85.948-67.518v506.266h48.737c26.917 0 48.737-21.82 48.737-48.737v0-658.209l-217.239 170.666h-416.69c-26.917 0-48.737 21.82-48.737 48.737v0z" />
<glyph unicode="&#xe916;" glyph-name="check-circle" d="M930.895 469.213v-42.821c-0.047-115.664-46.964-220.296-122.878-296.117s-180.594-122.599-296.257-122.506-220.343 46.964-296.117 122.878-122.599 180.547-122.552 296.257 46.964 220.296 122.878 296.117 180.594 122.599 296.257 122.552c61.905-0.047 120.365-13.452 169.842-36.073 23.366-10.705 51.013-0.372 61.671 22.993s0.372 51.013-22.993 61.671c-61.765 28.206-133.398 44.451-208.474 44.496-141.357 0.093-269.447-57.203-362.118-149.735s-150.060-220.622-150.154-361.979 57.203-269.447 149.735-362.118 220.575-150.107 361.932-150.154 269.447 57.203 362.118 149.735 150.107 220.575 150.199 361.979v42.821c0 25.693-20.852 46.545-46.545 46.545s-46.545-20.852-46.545-46.545zM944.533 831.657l-432.54-432.959-106.727 106.68c-18.199 18.199-47.662 18.199-65.815 0s-18.199-47.662 0-65.815l139.634-139.634c18.199-18.199 47.662-18.152 65.86 0l465.447 465.912c18.152 18.199 18.152 47.662-0.047 65.815s-47.662 18.152-65.815-0.047z" />
<glyph unicode="&#xe917;" glyph-name="comments" d="M228.102 128.005l-228.102-179.217v947.236c0 28.27 22.918 51.188 51.188 51.188v0h921.623c28.27 0 51.188-22.918 51.188-51.188v0-716.831c0-28.27-22.918-51.188-51.188-51.188v0zM192.658 230.42h728.965v614.415h-819.246v-685.342zM460.812 588.816h102.415v-102.415h-102.415zM256.019 588.816h102.377v-102.415h-102.415zM665.642 588.816h102.415v-102.415h-102.454z" />
<glyph unicode="&#xe918;" glyph-name="content" d="M921.6-64h-819.2c-28.277 0-51.2 22.924-51.2 51.2v0 921.599c0 28.277 22.924 51.2 51.2 51.2v0h819.2c28.277 0 51.2-22.924 51.2-51.2v0-921.599c0-28.277-22.924-51.2-51.2-51.2v0zM870.401 38.401v819.2h-716.799v-819.2zM307.201 703.999h409.599v-102.4h-409.599zM307.201 499.2h409.599v-102.4h-409.599zM307.201 294.4h255.999v-102.4h-255.999z" />
<glyph unicode="&#xe919;" glyph-name="dash-icon" d="M568.889-64v568.889h455.111v-568.889zM0 391.111v568.889h455.111v-568.889zM341.333 504.889v341.333h-227.556v-341.333zM0-64v341.333h455.111v-341.333zM113.777 49.777h227.556v113.777h-227.556zM682.667 49.777h227.556v341.333h-227.556zM568.889 960h455.111v-341.333h-455.111zM682.667 846.223v-113.777h227.556v113.777z" />
<glyph unicode="&#xe91a;" glyph-name="desktop" d="M102.4 268.799h819.199v563.199h-819.199zM563.199 166.4v-102.399h204.8v-102.399h-511.999v102.399h204.8v102.399h-410.009c-28.1 0.232-50.791 23.065-50.791 51.198 0 0.12 0 0.241 0.001 0.361v-0.018 664.916c0 0.001 0 0.004 0 0.006 0 28.201 22.65 51.113 50.75 51.535h922.457c28.1-0.232 50.791-23.065 50.791-51.198 0-0.12 0-0.241-0.001-0.361v0.018-664.916c0-0.001 0-0.004 0-0.006 0-28.201-22.65-51.113-50.75-51.535h-0.040z" />
<glyph unicode="&#xe91b;" glyph-name="diagram-arrow-up" d="M725.336 639.995h153.001l-302.332-302.332-183.166 183.166c-16.683 16.683-43.69 16.683-60.33 0l-319.996-319.996c-16.683-16.683-16.683-43.69 0-60.33s43.69-16.683 60.33 0l289.832 289.832 183.166-183.166c16.683-16.683 43.69-16.683 60.33 0l332.497 332.497v-153.001c0-23.552 19.115-42.666 42.666-42.666s42.666 19.115 42.666 42.666v255.997c0 5.803-1.152 11.307-3.243 16.341s-5.163 9.728-9.216 13.781c-0.043 0.043-0.043 0.043-0.085 0.085-3.925 3.925-8.619 7.083-13.781 9.216-5.035 2.091-10.539 3.243-16.341 3.243h-255.997c-23.552 0-42.666-19.115-42.666-42.666s19.115-42.666 42.666-42.666z" />
<glyph unicode="&#xe91c;" glyph-name="diagram-arrow-down" d="M725.336 213.339h153.001l-302.332 302.332-183.166-183.166c-16.683-16.683-43.69-16.683-60.33 0l-319.996 319.996c-16.683 16.683-16.683 43.69 0 60.33s43.69 16.683 60.33 0l289.832-289.832 183.166 183.166c16.683 16.683 43.69 16.683 60.33 0l332.497-332.497v153.001c0 23.552 19.115 42.666 42.666 42.666s42.666-19.115 42.666-42.666v-255.997c0-5.803-1.152-11.307-3.243-16.341s-5.163-9.728-9.216-13.781c-0.043-0.043-0.043-0.043-0.085-0.085-3.925-3.925-8.619-7.083-13.781-9.216-5.035-2.091-10.539-3.243-16.341-3.243h-255.997c-23.552 0-42.666 19.115-42.666 42.666s19.115 42.666 42.666 42.666z" />
<glyph unicode="&#xe91d;" glyph-name="engaged" d="M271.021-3.756l-271.021-60.244 60.244 271.059c-37.935 69.75-60.236 152.743-60.236 240.945 0 282.768 229.229 511.996 511.996 511.996s511.996-229.229 511.996-511.996c0-282.768-229.229-511.996-511.996-511.996-88.202 0-171.195 22.303-243.646 61.576l2.702-1.34zM285.889 104.476l33.465-17.942c55.817-30.357 122.231-48.205 192.814-48.205 226.282 0 409.72 183.438 409.72 409.72s-183.438 409.72-409.72 409.72c-226.282 0-409.72-183.438-409.72-409.72 0-70.55 17.831-136.936 49.232-194.896l-1.072 2.164 17.866-33.465-33.541-150.956 150.956 33.541zM256.114 448.266h102.468c0-84.876 68.807-153.683 153.683-153.683s153.683 68.807 153.683 153.683v0h102.468c0-141.469-114.683-256.151-256.151-256.151s-256.151 114.683-256.151 256.151v0z" />
<glyph unicode="&#xe91e;" glyph-name="excell" d="M83.626 875.644l589.067 84.119c1.001 0.152 2.154 0.237 3.328 0.237 12.941 0 23.431-10.49 23.431-23.431 0-0.083 0-0.167-0.001-0.25v0.013-976.67c0.001-0.068 0.001-0.149 0.001-0.231 0-12.941-10.49-23.431-23.431-23.431-1.158 0-2.296 0.083-3.408 0.246l0.126-0.015-589.16 84.353c-22.861 3.372-40.208 22.854-40.208 46.388 0 0.002 0 0.004 0 0.007v0 762.272c0 23.551 17.373 43.043 40.001 46.364l0.255 0.031zM137.097 788.573v-680.918l468.629-66.967v814.852zM746.314 120.073h140.589v656.080h-140.589v93.725h187.452c25.882 0 46.863-20.982 46.863-46.863v0-749.807c0-25.882-20.982-46.863-46.863-46.863v0h-187.452zM427.647 448.114l131.217-187.452h-112.471l-74.981 107.129-74.981-107.129h-112.471l131.217 187.452-131.217 187.452h112.471l74.981-107.129 74.981 107.129h112.471z" />
<glyph unicode="&#xe91f;" glyph-name="eye" d="M512 873.937c254.054-0.019 465.607-181.963 511.484-422.657l0.516-3.253c-46.35-243.982-257.923-425.965-512-425.965s-465.651 181.983-511.485 422.714l-0.515 3.251c46.394 243.946 257.946 425.891 511.998 425.91h0.002zM512 116.783c0.027 0 0.059 0 0.091 0 201.659 0 370.585 140.15 414.686 328.362l0.569 2.883c-44.521 191.293-213.544 331.645-415.347 331.645s-370.826-140.352-414.782-328.767l-0.566-2.878c44.672-191.094 213.597-331.245 415.256-331.245 0.032 0 0.064 0 0.096 0h-0.006zM512 235.073c-117.612 0-212.955 95.343-212.955 212.955s95.343 212.955 212.955 212.955c117.612 0 212.955-95.343 212.955-212.955v0c0-117.612-95.343-212.955-212.955-212.955v0zM512 329.738c65.329 0 118.29 52.96 118.29 118.29s-52.96 118.29-118.29 118.29c-65.329 0-118.29-52.96-118.29-118.29v0c0-65.329 52.96-118.29 118.29-118.29v0z" />
<glyph unicode="&#xe920;" glyph-name="facebook-follow" d="M705.525-64v396.343h132.707l19.885 154.027h-152.592v98.266c0 44.623 12.369 75.169 76.33 75.169h81.592v137.695c-34.539 3.877-74.579 6.088-115.136 6.088-1.324 0-2.647-0.002-3.97-0.007l0.203 0.001c-3.939 0.298-8.532 0.467-13.164 0.467-102.503 0-185.598-83.095-185.598-185.598 0-6.542 0.339-13.006 0.999-19.373l-0.067 0.797v-113.504h-133.253v-154.027h133.253v-396.343h-489.825c-31.4 0-56.855 25.455-56.855 56.855 0 0.024 0 0.048 0 0.072v-0.004 910.221c0 31.4 25.455 56.855 56.855 56.855v0h910.221c31.4 0 56.855-25.455 56.855-56.855v0-910.221c0-31.4-25.455-56.855-56.855-56.855v0z" />
<glyph unicode="&#xe921;" glyph-name="facebook" d="M625.776 49.778h284.444v796.443h-796.443v-796.443h398.222v284.444h-113.777v113.777h113.777v94.095c-0.797 7.473-1.253 16.144-1.253 24.921 0 38.717 8.857 75.367 24.655 108.032l-0.647-1.483c14.844 27.657 36.953 49.748 63.797 64.163l0.828 0.407c28.092 13.611 61.089 21.597 95.945 21.675h0.027c3.932 0.151 8.548 0.237 13.185 0.237 20.999 0 41.587-1.763 61.623-5.147l-2.16 0.301v-108.089h-28.444c-6.507 0.728-14.051 1.144-21.691 1.144-23.211 0-45.525-3.833-66.347-10.901l1.453 0.428c-7.708-4.021-13.841-10.156-17.755-17.635l-0.108-0.228c-6.827-12.857-9.329-25.6-9.329-77.824v-94.095h142.222l-28.444-113.777h-113.777zM56.889 959.999h910.221c31.419 0 56.889-25.471 56.889-56.889v0-910.221c0-31.419-25.471-56.889-56.889-56.889v0h-910.221c-31.419 0-56.889 25.471-56.889 56.889v0 910.221c0 31.419 25.471 56.889 56.889 56.889v0z" />
<glyph unicode="&#xe922;" glyph-name="female" d="M467.503 294.908c-164.345 22.716-289.538 162.267-289.538 331.057 0 184.482 149.553 334.035 334.035 334.035s334.035-149.553 334.035-334.035c0-168.791-125.194-308.341-287.789-330.859l-1.749-0.198v-91.929h222.482v-88.992h-222.482v-177.986h-88.992v177.986h-222.482v88.992h222.482zM512 380.964c135.161 0 244.731 109.57 244.731 244.731s-109.57 244.731-244.731 244.731c-135.161 0-244.731-109.57-244.731-244.731v0c0-135.161 109.57-244.731 244.731-244.731v0z" />
<glyph unicode="&#xe923;" glyph-name="flag" d="M164.753 960h694.456c0.010 0 0.024 0 0.037 0 27.389 0 49.593-22.204 49.593-49.593v0-949.603c-0.007-13.7-11.114-24.804-24.815-24.804-4.881 0-9.434 1.409-13.271 3.844l0.101-0.060-358.873 225.049-358.836-225.012c-3.737-2.374-8.29-3.783-13.17-3.783-13.688 0-24.787 11.082-24.815 24.764v949.605c0 27.389 22.204 49.593 49.593 49.593v0zM809.616 860.813h-595.269v-765.516l297.635 186.58 297.635-186.58z" />
<glyph unicode="&#xe924;" glyph-name="help" d="M512-64c-282.769 0-512 229.23-512 512s229.23 512 512 512c282.769 0 512-229.23 512-512v0c0-282.769-229.23-512-512-512v0zM512 38.401c226.215 0 409.599 183.384 409.599 409.599s-183.384 409.599-409.599 409.599c-226.215 0-409.599-183.384-409.599-409.599v0c0-226.215 183.384-409.599 409.599-409.599v0zM460.8 294.4h102.4v-102.4h-102.4zM563.2 378.624v-33.024h-102.4v76.8c0 28.277 22.924 51.2 51.2 51.2v0c42.413 0.002 76.795 34.386 76.795 76.8s-34.385 76.8-76.8 76.8c-37.088 0-68.036-26.29-75.226-61.252l-0.085-0.496-100.454 20.122c17.018 82.675 89.203 143.959 175.7 143.959 98.97 0 179.199-80.231 179.199-179.199 0-80.688-53.328-148.92-126.661-171.375l-1.27-0.335z" />
<glyph unicode="&#xe925;" glyph-name="home" d="M837.819-9.271h-651.636c-25.706 0-46.546 20.84-46.546 46.546v0 418.909h-139.636l480.675 436.969c8.236 7.515 19.244 12.119 31.325 12.119s23.088-4.604 31.361-12.152l-0.037 0.033 480.675-436.969h-139.636v-418.909c0-25.706-20.84-46.546-46.546-46.546v0zM558.547 83.82h232.727v458.147l-279.273 253.998-279.273-253.998v-458.147h232.727v279.273h93.091z" />
<glyph unicode="&#xe926;" glyph-name="hummer" d="M914.286 960c26.944 0 48.786-21.842 48.786-48.786v0-243.785c0-26.944-21.842-48.786-48.786-48.786v0h-243.785v-633.856c0-26.944-21.842-48.786-48.786-48.786v0h-195.072c-26.912 0.041-48.713 21.869-48.713 48.786 0 0 0 0 0 0v0 633.929h-268.215c-26.944 0-48.786 21.842-48.786 48.786v0 116.078c0 0.071-0.001 0.155-0.001 0.239 0 19 10.861 35.463 26.713 43.519l0.278 0.128 265.582 132.535zM670.501 862.501h-293.815l-218.185-109.056v-37.23h316.928v-682.642h97.499v682.642h97.499zM865.573 862.501h-97.573v-146.286h97.499z" />
<glyph unicode="&#xe927;" glyph-name="image" d="M144.82-12.275l-1.003-1.003-1.063 1.003h-91.943c-28.069 0.033-50.81 22.796-50.81 50.869 0 0 0 0 0 0v0 819.814c0.198 27.993 22.822 50.637 50.788 50.869h922.401c28.062 0 50.81-22.749 50.81-50.81 0-0.021 0-0.041 0-0.062v0.003-819.579c-0.232-27.968-22.842-50.579-50.788-50.81h-0.022zM921.614 294.89v512h-819.283v-716.777l512 512zM921.614 150.13l-307.165 307.165-367.241-367.181h674.406zM307.226 499.666c-56.548 0-102.388 45.84-102.388 102.388s45.84 102.388 102.388 102.388c56.527 0 102.355-45.807 102.388-102.326v-0.003c0-0.017 0-0.038 0-0.059 0-56.548-45.84-102.388-102.388-102.388v0z" />
<glyph unicode="&#xe928;" glyph-name="insight" d="M0 448c0 282.769 229.23 512 512 512s512-229.23 512-512c0-282.769-229.23-512-512-512v0h-512l149.965 149.965c-92.646 92.413-149.965 220.205-149.965 361.385 0 0.229 0 0.457 0 0.686v-0.035zM247.194 38.401h264.806c226.209 0.008 409.585 183.39 409.585 409.599 0 226.215-183.384 409.599-409.599 409.599s-409.599-183.384-409.599-409.599c0-113.112 45.85-215.515 119.976-289.638l72.397-72.397zM460.8 755.2h102.4v-614.399h-102.4zM256.001 601.6h102.4v-307.2h-102.4zM665.6 601.6h102.4v-307.2h-102.4z" />
<glyph unicode="&#xe929;" glyph-name="instagram" d="M511.997 601.599c-84.83 0-153.6-68.77-153.6-153.6s68.77-153.6 153.6-153.6c84.83 0 153.6 68.77 153.6 153.6v0c0 84.83-68.77 153.6-153.6 153.6v0zM511.997 703.998c141.385 0 255.999-114.616 255.999-255.999s-114.616-255.999-255.999-255.999c-141.385 0-255.999 114.616-255.999 255.999v0c0 141.385 114.616 255.999 255.999 255.999v0zM844.796 716.799c0-35.346-28.654-64-64-64s-64 28.654-64 64c0 35.346 28.654 64 64 64v0c35.346 0 64-28.654 64-64v0zM511.997 857.598c-126.668 0-147.354-0.359-206.285-2.97-33.196-0.45-64.808-6.644-94.079-17.63l1.919 0.631c-21.691-8.058-40.169-20.279-55.262-35.806l-0.034-0.035c-15.556-15.132-27.775-33.607-35.506-54.275l-0.335-1.021c-10.346-27.355-16.524-58.973-16.945-91.978l-0.002-0.182c-2.765-56.576-3.072-76.339-3.072-206.336 0-126.668 0.359-147.354 2.97-206.285 0.455-33.192 6.629-64.805 17.579-94.088l-0.632 1.928c16.517-42.072 49.178-74.75 90.16-90.914l1.079-0.376c27.348-10.36 58.956-16.571 91.954-17.047l0.206-0.002c56.32-2.663 76.288-2.97 206.285-2.97 126.668 0 147.354 0.359 206.285 2.97 33.194 0.466 64.806 6.64 94.092 17.58l-1.932-0.632c21.67 8.118 40.136 20.328 55.268 35.812l0.028 0.029c15.554 15.132 27.773 33.608 35.504 54.274l0.335 1.022c10.321 27.35 16.512 58.958 16.996 91.949l0.002 0.211c2.663 56.32 2.97 76.288 2.97 206.285 0 126.668-0.359 147.354-2.97 206.285-0.461 33.197-6.654 64.808-17.63 94.082l0.632-1.922c-8.101 21.676-20.315 40.145-35.809 55.267l-0.030 0.029c-15.126 15.564-33.604 27.785-54.276 35.506l-1.020 0.334c-27.355 10.342-58.972 16.519-91.975 16.945l-0.185 0.002c-56.525 3.020-76.288 3.328-206.285 3.328zM511.997 959.999c139.11 0 156.467-0.512 211.046-3.072 44.893-0.955 87.485-9.605 126.9-24.677l-2.586 0.869c35.518-13.524 65.792-33.611 90.688-58.993l0.040-0.040c25.379-24.961 45.458-55.226 58.452-89.006l0.582-1.72c14.184-36.829 22.832-79.417 23.801-123.898l0.007-0.415c2.406-54.58 3.072-71.936 3.072-211.046s-0.512-156.467-3.072-211.046c-0.983-44.898-9.63-87.485-24.679-126.911l0.871 2.597c-27.145-69.013-80.747-122.615-147.987-149.143l-1.772-0.617c-36.829-14.184-79.417-22.832-123.898-23.801l-0.415-0.007c-54.58-2.406-71.68-3.072-211.046-3.072s-156.467 0.512-211.046 3.072c-44.898 0.983-87.485 9.63-126.911 24.679l2.597-0.871c-69.013 27.145-122.615 80.747-149.143 147.987l-0.617 1.772c-14.209 36.829-22.86 79.422-23.801 123.911l-0.007 0.403c-2.406 54.58-3.072 71.936-3.072 211.046s0.512 156.467 3.072 211.046c0.948 44.892 9.599 87.484 24.677 126.898l-0.869-2.584c13.53 35.516 33.617 65.789 58.994 90.689l0.040 0.038c24.955 25.39 55.222 45.472 89.009 58.453l1.717 0.58c36.829 14.209 79.422 22.86 123.911 23.801l0.403 0.007c54.58 2.406 71.936 3.072 211.046 3.072z" />
<glyph unicode="&#xe92a;" glyph-name="lead" d="M117.674 960h788.649c27.222 0 49.291-22.069 49.291-49.291v0-950.125c-0.036-13.585-11.056-24.584-24.645-24.584-3.566 0-6.955 0.758-10.015 2.12l0.157-0.062-409.111 182.523-409.111-182.375c-2.903-1.301-6.293-2.057-9.859-2.057-13.572 0-24.581 10.97-24.645 24.528v950.032c0 27.222 22.069 49.291 49.291 49.291v0zM857.032 74.495v786.924h-690.068v-786.924l345.034 153.984zM511.998 393.158l-144.865-76.154 27.652 161.278-117.164 114.255 161.969 23.561 72.407 146.738 72.457-146.738 161.92-23.561-117.164-114.255 27.602-161.278z" />
<glyph unicode="&#xe92b;" glyph-name="location-pin" d="M511.999 69.28l233.285 233.285c59.692 59.698 96.613 142.168 96.613 233.261 0 182.197-147.701 329.898-329.898 329.898s-329.898-147.701-329.898-329.898c0-91.093 36.921-173.562 96.614-233.262v0zM511.999-64l-299.924 299.924c-76.756 76.757-124.23 182.795-124.23 299.921 0 234.254 189.901 424.155 424.155 424.155s424.155-189.901 424.155-424.155c0-117.127-47.474-223.164-124.23-299.921v0zM511.999 441.593c52.057 0 94.257 42.2 94.257 94.257s-42.2 94.257-94.257 94.257c-52.057 0-94.257-42.2-94.257-94.257v0c0-52.057 42.2-94.257 94.257-94.257v0zM511.999 347.336c-104.113 0-188.513 84.4-188.513 188.513s84.4 188.513 188.513 188.513c104.113 0 188.513-84.4 188.513-188.513v0c0-104.113-84.4-188.513-188.513-188.513v0z" />
<glyph unicode="&#xe92c;" glyph-name="mail-dog" d="M921.6 448.059c-0.025 226.197-183.4 409.556-409.6 409.556-226.216 0-409.6-183.384-409.6-409.6s183.384-409.6 409.6-409.6c84.689 0 163.375 25.702 228.683 69.732l-1.457-0.926 56.832-85.197c-79.819-53.89-178.186-86.024-284.058-86.024-282.77 0-512 229.23-512 512s229.23 512 512 512c282.749 0 511.966-229.197 512-511.938v-76.803c0-0.098 0-0.213 0-0.329 0-98.969-80.231-179.2-179.2-179.2-61.529 0-115.815 31.009-148.083 78.253l-0.398 0.617c-46.641-48.399-112.026-78.458-184.431-78.458-141.385 0-256 114.615-256 256s114.615 256 256 256c57.969 0 111.438-19.268 154.352-51.748l-0.641 0.465h102.4v-281.6c0-42.415 34.385-76.8 76.8-76.8s76.8 34.385 76.8 76.8v0zM512 601.659c-84.831 0-153.6-68.769-153.6-153.6s68.769-153.6 153.6-153.6c84.831 0 153.6 68.769 153.6 153.6v0c0 84.831-68.769 153.6-153.6 153.6v0z" />
<glyph unicode="&#xe92d;" glyph-name="mail" d="M51.182 908.819h921.636c28.267 0 51.182-22.915 51.182-51.182v0-819.273c0-28.267-22.915-51.182-51.182-51.182v0h-921.636c-28.267 0-51.182 22.915-51.182 51.182v0 819.273c0 28.267 22.915 51.182 51.182 51.182v0zM921.636 691.805l-405.949-363.554-413.261 364.722v-603.364h819.212zM128.599 806.395l386.595-341.128 380.943 341.128z" />
<glyph unicode="&#xe92e;" glyph-name="male" d="M649.432 661.584l190.519 190.626h-247.108v107.789h431.158v-431.158h-107.789v247.161l-190.626-190.626c51.689-67.206 82.838-152.548 82.838-245.166 0-223.24-180.972-404.211-404.211-404.211s-404.211 180.972-404.211 404.211c0 223.24 180.972 404.211 404.211 404.211 92.617 0 177.959-31.15 246.121-83.543l-0.955 0.705zM404.211 43.787c163.709 0 296.422 132.713 296.422 296.422s-132.713 296.422-296.422 296.422c-163.709 0-296.422-132.713-296.422-296.422v0c0-163.709 132.713-296.422 296.422-296.422v0z" />
<glyph unicode="&#xe92f;" glyph-name="marketing" d="M972.801 466.125v-478.924c0-28.277-22.924-51.2-51.2-51.2v0h-819.2c-28.277 0-51.2 22.924-51.2 51.2v0 478.924c-31.786 35.809-51.2 83.224-51.2 135.171 0 0.107 0 0.214 0 0.319v-0.017 307.2c0 28.277 22.924 51.2 51.2 51.2v0h921.599c28.277 0 51.2-22.924 51.2-51.2v0-307.2c0-0.061 0-0.133 0-0.206 0-51.979-19.414-99.425-51.385-135.481l0.185 0.212zM870.401 403.251c-15.32-4.098-32.91-6.452-51.048-6.452-61.111 0-115.981 26.719-153.566 69.113l-0.186 0.214c-37.71-42.611-92.533-69.337-153.6-69.337s-115.89 26.726-153.411 69.121l-0.188 0.216c-37.626-42.662-92.413-69.432-153.452-69.432-18.25 0-35.94 2.393-52.775 6.882l1.427-0.324v-364.851h716.799v364.851zM614.401 601.6c0 28.277 22.924 51.2 51.2 51.2s51.2-22.924 51.2-51.2v0c0-56.554 45.846-102.4 102.4-102.4s102.4 45.846 102.4 102.4v0 255.999h-819.2v-255.999c0-56.554 45.846-102.4 102.4-102.4s102.4 45.846 102.4 102.4v0c0 28.277 22.924 51.2 51.2 51.2s51.2-22.924 51.2-51.2v0c0-56.554 45.846-102.4 102.4-102.4s102.4 45.846 102.4 102.4v0z" />
<glyph unicode="&#xe930;" glyph-name="medal-star" d="M512 716.229c215.455 0 390.114-174.661 390.114-390.114s-174.661-390.114-390.114-390.114c-215.455 0-390.114 174.661-390.114 390.114v0c0 215.455 174.661 390.114 390.114 390.114v0zM512 618.686c-161.583 0-292.571-130.989-292.571-292.571s130.989-292.571 292.571-292.571c161.583 0 292.571 130.989 292.571 292.571v0c0 161.583-130.989 292.571-292.571 292.571v0zM512 545.543l64.366-130.663 144.179-20.949-104.331-101.698 24.634-143.653-128.848 67.818-128.731-67.76 24.634 143.594-104.624 101.698 144.354 21.007zM804.571 960v-146.286l-66.472-55.472c-51.409 27.534-111.527 46.405-175.304 52.903l-2.053 0.169v148.685zM463.257 960v-148.626c-65.81-6.677-125.906-25.546-179.907-54.343l2.609 1.27-66.53 55.413v146.286z" />
<glyph unicode="&#xe931;" glyph-name="medal" d="M748.837 285.335v-325.462c0-0.002 0-0.003 0-0.006 0-13.089-10.61-23.697-23.697-23.697-4.49 0-8.689 1.249-12.267 3.418l0.105-0.059-200.949 120.365-200.949-120.535c-3.473-2.11-7.671-3.359-12.162-3.359-13.089 0-23.697 10.61-23.697 23.697 0 0.002 0 0.004 0 0.006v0 325.633c-86.941 70.018-142.103 176.458-142.103 295.782 0 209.251 169.632 378.882 378.882 378.882s378.882-169.632 378.882-378.882c0-119.324-55.16-225.765-141.373-295.214l-0.729-0.568zM369.955 229.529v-144.46l142.074 85.244 142.074-85.244v144.46c-42.046-17.436-90.877-27.561-142.074-27.561s-100.028 10.125-144.601 28.484l2.527-0.921zM512.029 296.701c156.93 0 284.148 127.217 284.148 284.148s-127.217 284.148-284.148 284.148c-156.93 0-284.148-127.217-284.148-284.148v0c0-156.93 127.217-284.148 284.148-284.148v0z" />
<glyph unicode="&#xe932;" glyph-name="mobile" d="M256.002 857.598v-819.2h512v819.2zM204.801 959.999h614.399c28.277 0 51.2-22.924 51.2-51.2v0-921.599c0-28.277-22.924-51.2-51.2-51.2v0h-614.399c-28.277 0-51.2 22.924-51.2 51.2v0 921.599c0 28.277 22.924 51.2 51.2 51.2v0zM512.001 192c28.277 0 51.2-22.924 51.2-51.2s-22.924-51.2-51.2-51.2c-28.277 0-51.2 22.924-51.2 51.2v0c0 28.277 22.924 51.2 51.2 51.2v0z" />
<glyph unicode="&#xe933;" glyph-name="move-left-right" d="M720.405 445.434l254.717-254.717-254.717-254.717-72.749 72.749 130.639 130.562h-677.971v102.852h677.971l-130.484 130.484 72.594 72.787zM303.595 960l72.749-72.749-130.639-130.523h677.971v-102.929h-677.971l130.484-130.484-72.594-72.749-254.717 254.717 254.717 254.717z" />
<glyph unicode="&#xe934;" glyph-name="news-letter" d="M921.612-64h-819.224c-28.265 0-51.178 22.914-51.178 51.178 0 0.021 0 0.043 0 0.065v-0.003 921.581c0 28.265 22.914 51.178 51.178 51.178v0h819.224c28.265 0 51.178-22.914 51.178-51.178v0-921.581c0-0.018 0-0.040 0-0.061 0-28.265-22.914-51.178-51.178-51.178v0zM870.372 38.42v819.163h-716.744v-819.163zM255.985 755.225h204.836v-204.836h-204.836zM255.985 448.031h511.969v-102.418h-511.969zM255.985 243.256h511.969v-102.418h-511.969zM563.178 704.047h204.775v-102.418h-204.775z" />
<glyph unicode="&#xe935;" glyph-name="next-box" d="M102.401 54.682h819.2v255.999h102.4v-307.2c0-28.277-22.924-51.2-51.2-51.2v0h-921.599c-28.277 0-51.2 22.924-51.2 51.2v0 307.2h102.4zM725.607 669.082l-202.239 202.239 72.244 72.397 325.837-325.837-325.837-325.837-72.397 72.397 202.239 202.239h-571.852v102.4z" />
<glyph unicode="&#xe936;" glyph-name="next" d="M779.009 511.999l-343.296 343.296 90.496 90.496 497.791-497.791-497.791-497.791-90.496 90.496 343.296 343.296h-779.009v127.999z" />
<glyph unicode="&#xe937;" glyph-name="parking" d="M56.87 960h910.259c31.409 0 56.87-25.461 56.87-56.87v0-910.259c0-31.409-25.461-56.87-56.87-56.87v0h-910.259c-31.409 0-56.87 25.461-56.87 56.87v0 910.259c0 31.409 25.461 56.87 56.87 56.87v0zM113.741 846.176v-796.435h796.519v796.435zM341.389 732.435h199.088c109.976 0 199.13-89.153 199.13-199.13s-89.153-199.13-199.13-199.13v0h-85.347v-170.694h-113.741zM455.13 618.611v-170.694h85.347c47.136 0 85.347 38.211 85.347 85.347s-38.211 85.347-85.347 85.347v0z" />
<glyph unicode="&#xe938;" glyph-name="pencil" d="M725.259 580.687l-80.572 80.572-530.724-530.724v-80.572h80.572l530.724 530.724zM805.831 661.258l80.572 80.572-80.572 80.572-80.572-80.572zM241.716-64h-241.715v241.772l765.545 765.545c10.311 10.307 24.555 16.683 40.285 16.683s29.975-6.376 40.285-16.683l161.2-161.2c10.307-10.311 16.683-24.555 16.683-40.285s-6.376-29.975-16.683-40.285l-765.545-765.545z" />
<glyph unicode="&#xe939;" glyph-name="people" d="M0.006-63.988c0 215.441 174.649 390.090 390.090 390.090s390.090-174.649 390.090-390.090v0h-97.522c0 161.581-130.987 292.568-292.568 292.568s-292.568-130.987-292.568-292.568v0zM390.097 374.864c-161.581 0-292.568 130.987-292.568 292.568s130.987 292.568 292.568 292.568c161.581 0 292.568-130.987 292.568-292.568v0c0-161.581-130.987-292.568-292.568-292.568v0zM390.097 472.387c107.721 0 195.046 87.325 195.046 195.046s-87.325 195.046-195.046 195.046c-107.721 0-195.046-87.325-195.046-195.046v0c0-107.721 87.325-195.046 195.046-195.046v0zM794.035 291.97c136.707-62.639 229.958-198.283 229.958-355.708 0-0.088 0-0.175 0-0.263v0.014h-97.522c0 0.021 0 0.043 0 0.067 0 118.088-69.961 219.834-170.695 266.054l-1.822 0.75 40.033 88.941zM760.683 842.339c98.374-41.214 166.222-136.707 166.222-248.047 0-139.685-106.792-254.427-243.184-267.037l-1.056-0.079v98.157c83.272 12.262 146.468 83.221 146.468 168.941 0 66.971-38.574 124.931-94.717 152.876l-0.991 0.447z" />
<glyph unicode="&#xe93a;" glyph-name="person-green" d="M541.599 335.89v-98.429c-28.048 10.239-60.428 16.161-94.191 16.161-156.061 0-282.574-126.512-282.574-282.574 0-0.019 0-0.039 0-0.057v0.003h-94.191c0 0.029 0 0.062 0 0.096 0 208.081 168.683 376.765 376.765 376.765 33.472 0 65.925-4.364 96.82-12.557l-2.629 0.593zM447.409 394.853c-156.061 0-282.574 126.512-282.574 282.574s126.512 282.574 282.574 282.574c156.061 0 282.574-126.512 282.574-282.574v0c0-156.061-126.512-282.574-282.574-282.574v0zM447.409 489.045c104.041 0 188.383 84.342 188.383 188.383s-84.342 188.383-188.383 188.383c-104.041 0-188.383-84.342-188.383-188.383v0c0-104.041 84.342-188.383 188.383-188.383v0zM720.233 69.234l166.483 166.483 66.64-66.594-233.123-233.123-166.53 166.53 66.64 66.594 99.842-99.89z" />
<glyph unicode="&#xe93b;" glyph-name="person-in" d="M535.814 328.835v-99.542c-28.365 10.355-61.111 16.343-95.256 16.343-157.825 0-285.768-127.943-285.768-285.768 0-0.019 0-0.039 0-0.058v0.003h-95.256c0 0.029 0 0.063 0 0.097 0 210.433 170.59 381.023 381.023 381.023 33.85 0 66.67-4.414 97.915-12.699l-2.659 0.599zM440.558 388.464c-157.825 0-285.768 127.943-285.768 285.768s127.943 285.768 285.768 285.768c157.825 0 285.768-127.943 285.768-285.768v0c0-157.825-127.943-285.768-285.768-285.768v0zM440.558 483.721c105.217 0 190.512 85.295 190.512 190.512s-85.295 190.512-190.512 190.512c-105.217 0-190.512-85.295-190.512-190.512v0c0-105.217 85.295-190.512 190.512-190.512v0zM821.581 197.953h142.884v-95.256h-142.884v-166.698l-238.139 214.326 238.139 214.326z" />
<glyph unicode="&#xe93c;" glyph-name="person-love" d="M746.195 251.898l8.501-8.565 8.565 8.565c19.397 18.241 45.592 29.45 74.403 29.45 60.041 0 108.713-48.672 108.713-108.713 0-28.812-11.209-55.006-29.502-74.46l0.052 0.057-162.297-162.232-162.168 162.232c-18.241 19.397-29.45 45.592-29.45 74.403 0 60.041 48.672 108.713 108.713 108.713 28.812 0 55.006-11.209 74.46-29.502l-0.057 0.052zM464.043 332.016v-96.605c-160.061 0-289.816-129.755-289.816-289.816v0h-96.605c0 0.057 0 0.123 0 0.19 0 209.156 166.172 379.502 373.697 386.215l0.616 0.016zM464.043 959.949c1.619 0.033 3.529 0.051 5.442 0.051 160.089 0 289.867-129.777 289.867-289.867 0-158.176-126.694-286.76-284.139-289.811l-0.285-0.005h-10.884c-1.619-0.033-3.529-0.051-5.442-0.051-160.089 0-289.867 129.777-289.867 289.867 0 158.176 126.694 286.76 284.139 289.811l0.285 0.005zM464.043 863.344c-106.708 0-193.211-86.503-193.211-193.211s86.503-193.211 193.211-193.211c106.708 0 193.211 86.503 193.211 193.211v0c0 106.708-86.503 193.211-193.211 193.211v0z" />
<glyph unicode="&#xe93d;" glyph-name="person-star" d="M448.148 356.169v-92.919c-153.922 0-278.7-124.778-278.7-278.7v0h-92.919c0 205.24 166.38 371.619 371.619 371.619v0zM448.148 402.6c-153.922 0-278.7 124.778-278.7 278.7s124.778 278.7 278.7 278.7c153.922 0 278.7-124.778 278.7-278.7v0c0-153.922-124.778-278.7-278.7-278.7v0zM448.148 495.519c102.581 0.031 185.726 83.197 185.726 185.782 0 102.604-83.178 185.782-185.782 185.782s-185.782-83.178-185.782-185.782v0c0-0.017 0-0.036 0-0.056 0-102.574 83.152-185.726 185.726-185.726 0.039 0 0.078 0 0.118 0h-0.006zM726.849 7.793l-136.508-71.793 26.031 152.003-110.644 107.689 152.617 22.296 68.226 138.291 68.282-138.291 152.617-22.296-110.421-107.689 26.031-152.003z" />
<glyph unicode="&#xe93e;" glyph-name="phone" d="M362.293 523.164c54.321-94.252 130.476-170.408 221.833-223.186l2.896-1.543 50.155 70.171c10.433 14.587 27.315 23.982 46.392 23.982 9.968 0 19.337-2.565 27.482-7.070l-0.292 0.148c75.313-41.962 163.959-69.768 258.303-77.413l2.307-0.151c29.412-2.401 52.373-26.863 52.373-56.687 0-0.062 0-0.125 0-0.187v0.010-253.729c0-0.085 0.001-0.185 0.001-0.285 0-29.403-22.316-53.594-50.935-56.559l-0.244-0.020c-27.112-2.958-58.556-4.645-90.393-4.645-487.067 0-881.913 394.846-881.913 881.913 0 32.019 1.706 63.641 5.033 94.777l-0.335-3.869c2.986 28.863 27.176 51.179 56.58 51.179 0.1 0 0.2 0 0.3-0.001h253.431c0.053 0 0.115 0 0.178 0 29.824 0 54.286-22.96 56.674-52.17l0.013-0.203c7.772-96.558 35.518-185.128 79.085-263.71l-1.692 3.328c4.441-7.915 7.057-17.37 7.057-27.436 0-19.136-9.452-36.064-23.941-46.369l-0.175-0.118-70.398-50.268zM218.88 560.524l108.043 77.165c-28.782 60.489-50.583 130.679-61.847 204.338l-0.534 4.242h-149.952c-0.569-9.44-0.569-18.936-0.569-28.432 0-423.974 343.698-767.672 767.672-767.672v0c9.496 0 18.993 0 28.432 0.569v149.952c-77.912 11.856-148.095 33.715-213.216 64.524l4.636-1.973-77.165-108.043c-35.57 13.903-65.295 28.229-93.782 44.477l3.481-1.828-3.299 1.876c-112.088 64.607-202.656 155.176-265.428 263.819l-1.835 3.444-1.876 3.299c-14.421 25.007-28.747 54.732-40.973 85.518l-1.675 4.782z" />
<glyph unicode="&#xe93f;" glyph-name="phone-block" d="M362.362 523.107c53.918-93.168 128.965-168.647 218.892-221.536l2.836-1.542 2.899-1.539 50.128 70.14c10.433 14.579 27.312 23.968 46.384 23.968 10.074 0 19.537-2.62 27.744-7.216l-0.287 0.148-0.295 0.147c74.557-41.884 162.384-69.629 255.907-77.23l4.583-0.296c29.388-2.422 52.326-26.859 52.347-56.66v-253.802c0-0.082 0-0.188 0-0.287-0.018-29.29-22.188-53.398-50.662-56.477l-0.252-0.022h-0.246c-26.668-2.957-57.588-4.644-88.901-4.644-0.509 0-1.018 0-1.526 0.001h0.080c-486.823 0-881.474 394.636-881.498 881.454v0.003c0 0.058 0 0.127 0 0.196 0 33.302 1.826 66.179 5.384 98.534l-0.357-3.993-0.336-3.865c3.014 28.836 27.177 51.123 56.553 51.151h253.795c29.738-0.001 54.142-22.838 56.632-51.932l0.015-0.211v-0.205c7.765-97.807 36.129-187.498 80.729-266.838l-1.68 3.252-1.695 3.324c4.436-7.852 7.051-17.242 7.051-27.241 0-0.064 0-0.127 0-0.19v0.010c0-0.014 0-0.030 0-0.046 0-19.037-9.373-35.886-23.755-46.182l-0.171-0.117-0.172-0.115-70.369-50.243zM219.012 560.452l107.994 77.133c-28.501 59.221-50.1 127.935-61.29 200.090l-0.531 4.156-0.532 4.241h-149.844c-0.565-9.433-0.565-18.931-0.565-28.421 0-423.776 343.538-767.313 767.313-767.313v0 0c9.491 0 18.98 0 28.421 0.565v149.876c-79.592 12.018-151.324 34.569-217.709 66.475l4.563-1.976 4.635-1.973-77.133-107.994c-36.737 14.273-67.592 29.208-97.083 46.244l3.36-1.79 3.48-1.826-3.275 1.875c-110.794 64.119-200.555 153.356-263.463 260.287l-1.834 3.371-1.834 3.439-1.875 3.275c-13.846 23.712-27.588 51.838-39.34 80.98l-1.601 4.496-1.637 4.782zM963.62 899.853c-37 37-88.115 59.885-144.574 59.885-112.919 0-204.459-91.539-204.459-204.459 0-56.46 22.885-107.575 59.885-144.574v0c37-37 88.115-59.885 144.574-59.885 112.919 0 204.459 91.539 204.459 204.459 0 56.46-22.885 107.575-59.885 144.574v0zM972.406 755.282c0-0.047 0-0.103 0-0.158 0-33.261-10.648-64.036-28.722-89.101l0.309 0.451-213.752 213.752c24.697 17.764 55.551 28.409 88.89 28.409 84.651 0 153.274-68.623 153.274-153.274 0-0.027 0-0.055 0-0.082v0.004zM665.717 755.282c0 0.058 0 0.127 0 0.196 0 33.241 10.636 64 28.69 89.056l-0.309-0.451 213.752-213.752c-24.693-17.757-55.541-28.397-88.874-28.397-84.651 0-153.274 68.623-153.274 153.274 0 0.026 0 0.052 0 0.078v-0.004z" />
<glyph unicode="&#xe940;" glyph-name="plus" d="M438.858 521.142v438.857h146.285v-438.857h438.857v-146.285h-438.857v-438.857h-146.285v438.857h-438.857v146.285z" />
<glyph unicode="&#xe941;" glyph-name="printer" d="M204.8 89.6h-153.6c-28.277 0-51.2 22.924-51.2 51.2v0 511.999c0 28.277 22.924 51.2 51.2 51.2v0h153.6v204.8c0 28.277 22.924 51.2 51.2 51.2v0h511.999c28.277 0 51.2-22.924 51.2-51.2v0-204.8h153.6c28.277 0 51.2-22.924 51.2-51.2v0-511.999c0-28.277-22.924-51.2-51.2-51.2v0h-153.6v-102.399c0-28.277-22.924-51.2-51.2-51.2v0h-511.999c-28.277 0-51.2 22.924-51.2 51.2v0zM204.8 192v51.2c0 28.277 22.924 51.2 51.2 51.2v0h511.999c28.277 0 51.2-22.924 51.2-51.2v0-51.2h102.399v409.599h-819.199v-409.599zM307.199 857.598v-153.6h409.599v153.6zM307.199 192v-153.6h409.599v153.6zM153.6 550.399h153.6v-102.399h-153.6z" />
<glyph unicode="&#xe942;" glyph-name="replies" d="M512.019 38.392l-512.019 409.608 512.019 409.608v-256.010c282.76 0 511.981-229.221 511.981-511.981v0c0-13.977-0.499-27.801-1.651-41.471-76.333 142.973-222.151 239.989-391.141 246.003l-0.803 0.023-16.013 0.23h-102.373zM409.608 396.813h206.551l17.779-0.346c68.295-2.358 132.626-16.541 191.924-40.553l-3.767 1.348c-75.401 87.219-186.194 142.078-309.803 142.078-0.11 0-0.22 0-0.33 0h-102.356v145.227l-245.757-196.567 245.757-196.567z" />
<glyph unicode="&#xe943;" glyph-name="right-arr" d="M597.021 447.94l-396.449 398.256 113.202 113.805 509.652-512.060-509.652-511.94-113.202 113.805z" />
<glyph unicode="&#xe944;" glyph-name="ring" d="M902.096 228.571h97.523v-97.523h-975.238v97.523h97.523v341.334c0 215.443 174.651 390.095 390.095 390.095s390.095-174.651 390.095-390.095v0zM804.572 228.571v341.334c0 161.583-130.989 292.571-292.571 292.571s-292.571-130.989-292.571-292.571v0-341.334zM365.715 33.523h292.571v-97.523h-292.571z" />
<glyph unicode="&#xe945;" glyph-name="settings" d="M68.807 192.072c-20.178 34.211-37.251 73.74-49.174 115.442l-0.885 3.617c50.183 25.95 83.892 77.461 83.892 136.845s-33.709 110.895-83.036 136.442l-0.855 0.403c24.552 87.078 68.902 161.861 128.038 222.068l-0.074-0.076c23.696-15.706 52.791-25.059 84.070-25.059 84.807 0 153.558 68.751 153.558 153.558 0 2.945-0.083 5.871-0.246 8.774l0.018-0.403c38.454 10.364 82.603 16.317 128.144 16.317s89.69-5.953 131.713-17.124l-3.569 0.807c-0.133-2.398-0.21-5.203-0.21-8.027 0-84.807 68.751-153.558 153.558-153.558 31.057 0 59.961 9.219 84.123 25.072l-0.583-0.359c58.894-60.217 103.208-134.941 127.073-218.301l0.891-3.64c-50.183-25.95-83.892-77.461-83.892-136.845s33.709-110.895 83.036-136.442l0.855-0.403c-24.552-87.078-68.902-161.861-128.038-222.068l0.074 0.076c-23.661 15.642-52.699 24.954-83.912 24.954-84.807 0-153.558-68.751-153.558-153.558 0-2.908 0.080-5.798 0.24-8.666l-0.018 0.398c-38.454-10.364-82.603-16.317-128.144-16.317s-89.69 5.953-131.713 17.124l3.569-0.807c0.133 2.398 0.21 5.203 0.21 8.027 0 84.807-68.751 153.558-153.558 153.558-31.057 0-59.961-9.219-84.123-25.072l0.583 0.359c-29.46 30.043-55.314 63.801-76.748 100.457l-1.311 2.427zM358.518 181.834c54.075-31.592 94.831-80.979 114.643-139.982l0.525-1.803c11.508-1.15 24.872-1.807 38.389-1.807s26.882 0.656 40.063 1.939l-1.674-0.132c34.589 103.145 130.357 176.143 243.174 176.143 18.582 0 36.701-1.981 54.158-5.742l-1.683 0.304c13.787 19.197 26.559 41.032 37.243 64.036l1.045 2.506c-40.46 45.073-65.202 104.975-65.202 170.654s24.741 125.58 65.412 170.892l-0.21-0.238c-11.836 25.525-24.639 47.355-39.247 67.806l0.858-1.264c-15.755-3.449-33.852-5.424-52.411-5.424-112.775 0-208.513 72.942-242.609 174.222l-0.527 1.804c-11.508 1.15-24.872 1.807-38.389 1.807s-26.882-0.656-40.063-1.939l1.674 0.132c-34.606-103.114-130.36-176.084-243.156-176.084-18.57 0-36.679 1.978-54.125 5.734l1.683-0.304c-13.764-19.194-26.537-41.027-37.234-64.022l-1.052-2.521c40.46-45.073 65.202-104.975 65.202-170.654s-24.741-125.58-65.412-170.892l0.21 0.238c11.836-25.525 24.639-47.355 39.247-67.806l-0.858 1.264c15.76 3.456 33.864 5.436 52.43 5.436 47.095 0 91.214-12.738 129.101-34.957l-1.204 0.653zM512.076 294.444c-84.807 0-153.558 68.751-153.558 153.558s68.751 153.558 153.558 153.558c84.807 0 153.558-68.751 153.558-153.558v0c0-84.807-68.751-153.558-153.558-153.558v0zM512.076 396.815c28.269 0 51.186 22.917 51.186 51.186s-22.917 51.186-51.186 51.186c-28.269 0-51.186-22.917-51.186-51.186v0c0-28.269 22.917-51.186 51.186-51.186v0z" />
<glyph unicode="&#xe946;" glyph-name="site" d="M216.832 732.006c-71.080-73.571-114.879-173.895-114.879-284.45 0-226.216 183.384-409.6 409.6-409.6 56.539 0 110.403 11.456 159.397 32.172l-2.688-1.009c0.754 6.136 1.185 13.239 1.185 20.443 0 24.435-4.953 47.712-13.909 68.884l0.436-1.161c-32.43 55.799-70.714 103.718-115.017 145.3l-0.337 0.313c-17.306 18.176-16.179 32.154-9.984 73.574l0.666 4.659c4.198 28.365 11.264 45.158 106.752 60.314 5.395 1.601 11.594 2.522 18.007 2.522 27.323 0 50.741-16.721 60.579-40.488l0.159-0.435 5.939-8.806c11.21-17.789 27.759-31.327 47.374-38.499l0.651-0.208c8.448-3.84 18.944-8.704 33.024-16.64 33.382-19.098 33.382-40.653 33.382-87.859v-5.12c0.001-0.216 0.001-0.471 0.001-0.727 0-18.476-1.864-36.516-5.415-53.942l0.294 1.729c55.619 69.328 89.263 158.364 89.263 255.258 0 167.784-100.883 312.006-245.3 375.316l-2.632 1.029c-30.66-18.862-57.158-40.28-80.621-64.642l-0.121-0.126c-6.912-9.472-16.742-57.958-48.64-61.952-3.873-0.285-8.391-0.447-12.946-0.447-6.494 0-12.91 0.33-19.234 0.973l0.795-0.066c-31.846 2.048-75.366 4.864-89.293-32.973-3.704-12.408-5.836-26.665-5.836-41.42 0-30.279 8.977-58.461 24.414-82.031l-0.351 0.571c2.78-4.45 4.428-9.854 4.428-15.644 0-3.934-0.761-7.69-2.144-11.13l0.071 0.201c-2.532-10.167-7.778-18.87-14.922-25.574l-0.028-0.026c-7.935 6.632-14.971 13.846-21.22 21.713l-0.232 0.303c-15.505 21.763-36.537 38.663-61.071 48.81l-0.932 0.342c-9.421 2.611-19.763 4.762-29.85 6.912-28.109 5.99-59.648 12.749-67.328 28.467-3.644 10.506-5.748 22.615-5.748 35.216 0 3.193 0.135 6.355 0.4 9.48l-0.028-0.408c0.237 3.293 0.372 7.134 0.372 11.008 0 20.795-3.894 40.681-10.992 58.968l0.38-1.112c-3.811 8.635-9.103 15.96-15.622 21.975l-0.045 0.041zM512-64c-282.77 0-512 229.23-512 512s229.23 512 512 512c282.77 0 512-229.23 512-512v0c0-282.77-229.23-512-512-512v0z" />
<glyph unicode="&#xe947;" glyph-name="square-bottom" d="M972.8 908.8c28.277 0 51.2-22.924 51.2-51.2v0-819.2c0-28.277-22.924-51.2-51.2-51.2v0h-921.599c-28.277 0-51.2 22.924-51.2 51.2v0 819.2c0 28.277 22.924 51.2 51.2 51.2v0zM102.401 243.2v-153.6h819.2v153.6zM102.401 345.6h819.2v460.8h-819.2z" />
<glyph unicode="&#xe948;" glyph-name="square-center" d="M972.8 908.8c28.277 0 51.2-22.924 51.2-51.2v0-819.2c0-28.277-22.924-51.2-51.2-51.2v0h-921.599c-28.277 0-51.2 22.924-51.2 51.2v0 819.2c0 28.277 22.924 51.2 51.2 51.2v0zM102.401 448.001v-358.4h819.2v358.4zM102.401 550.4h819.2v255.999h-819.2z" />
<glyph unicode="&#xe949;" glyph-name="square-left-center" d="M967.111 959.999c31.419 0 56.889-25.471 56.889-56.889v0-910.221c0-31.419-25.471-56.889-56.889-56.889v0h-910.221c-31.419 0-56.889 25.471-56.889 56.889v0 910.221c0 31.419 25.471 56.889 56.889 56.889v0zM284.445 391.111h-170.666v-341.333h170.666zM398.224 49.778h511.999v796.443h-511.999zM284.445 846.222h-170.666v-341.333h170.666z" />
<glyph unicode="&#xe94a;" glyph-name="square-left" d="M972.8 908.8c28.277 0 51.2-22.924 51.2-51.2v0-819.2c0-28.277-22.924-51.2-51.2-51.2v0h-921.599c-28.277 0-51.2 22.924-51.2 51.2v0 819.2c0 28.277 22.924 51.2 51.2 51.2v0zM256.001 806.401h-153.6v-716.799h153.6zM921.599 806.401h-563.199v-716.799h563.199z" />
<glyph unicode="&#xe94b;" glyph-name="square-right-center" d="M56.89 959.999c-31.419 0-56.889-25.471-56.889-56.889v0-910.221c0-31.419 25.471-56.889 56.889-56.889v0h910.221c31.419 0 56.889 25.471 56.889 56.889v0 910.221c0 31.419-25.471 56.889-56.889 56.889v0zM739.556 391.111h170.666v-341.333h-170.666zM625.777 49.778h-511.999v796.443h511.999zM739.556 846.222h170.666v-341.333h-170.666z" />
<glyph unicode="&#xe94c;" glyph-name="square-right" d="M51.2 908.8c-28.277 0-51.2-22.924-51.2-51.2v0-819.2c0-28.277 22.924-51.2 51.2-51.2v0h921.599c28.277 0 51.2 22.924 51.2 51.2v0 819.2c0 28.277-22.924 51.2-51.2 51.2v0zM767.999 806.401h153.6v-716.799h-153.6zM102.401 806.401h563.199v-716.799h-563.199z" />
<glyph unicode="&#xe94d;" glyph-name="square-top-left" d="M56.937-63.939c-31.429 0-56.906 25.477-56.906 56.906v0 910.127c0 31.429 25.477 56.906 56.906 56.906h910.188c31.402-0.036 56.845-25.5 56.845-56.906 0 0 0 0 0 0v0-910.188c0-31.429-25.477-56.906-56.906-56.906v0zM284.438 561.781h-170.656v-511.969h170.656zM910.157 561.781h-511.907v-511.969h511.969zM910.157 846.187h-796.376v-170.656h796.438z" />
<glyph unicode="&#xe94e;" glyph-name="square-top" d="M972.8 908.8c28.277 0 51.2-22.924 51.2-51.2v0-819.2c0-28.277-22.924-51.2-51.2-51.2v0h-921.599c-28.277 0-51.2 22.924-51.2 51.2v0 819.2c0 28.277 22.924 51.2 51.2 51.2v0zM102.401 550.4v-460.8h819.2v460.8zM102.401 652.801h819.2v153.6h-819.2z" />
<glyph unicode="&#xe94f;" glyph-name="square" d="M56.553 959.999h910.895c31.233 0 56.552-25.32 56.552-56.552v-910.895c0-31.233-25.32-56.552-56.552-56.552v0h-910.895c-31.233 0-56.552 25.32-56.552 56.552v0 910.895c0 31.233 25.32 56.552 56.552 56.552v0zM113.106 846.167v-796.741h796.741v796.741z" />
<glyph unicode="&#xe950;" glyph-name="tablet" d="M204.801 857.599v-819.2h614.399v819.2zM153.6 960h716.799c28.277 0 51.2-22.924 51.2-51.2v0-921.599c0-28.277-22.924-51.2-51.2-51.2v0h-716.799c-28.277 0-51.2 22.924-51.2 51.2v0 921.599c0 28.277 22.924 51.2 51.2 51.2v0zM512.001 192.001c28.277 0 51.2-22.924 51.2-51.2s-22.924-51.2-51.2-51.2c-28.277 0-51.2 22.924-51.2 51.2v0c0 28.277 22.924 51.2 51.2 51.2v0z" />
<glyph unicode="&#xe951;" glyph-name="telegram" d="M512 38.401c226.215 0 409.599 183.384 409.599 409.599s-183.384 409.599-409.599 409.599c-226.215 0-409.599-183.384-409.599-409.599v0c0-226.215 183.384-409.599 409.599-409.599v0zM512-64c-282.769 0-512 229.23-512 512s229.23 512 512 512c282.769 0 512-229.23 512-512v0c0-282.769-229.23-512-512-512v0zM352.769 388.096l-128 39.884c-27.648 8.448-27.802 27.494 6.196 40.96l498.33 192.512c28.928 11.776 45.312-3.124 35.84-40.448l-84.839-400.383c-5.939-28.518-23.092-35.328-46.9-22.17l-130.611 96.666-60.672-58.573c-5.167-6.374-12.427-10.874-20.722-12.458l-0.22-0.035c-9.575-1.331-17.459 1.536-23.245 17.408l-44.646 146.995-0.614-0.409z" />
<glyph unicode="&#xe952;" glyph-name="tiktok" d="M393.276-64c-0.189 0-0.415-0.001-0.64-0.001-91.457 0-174.24 37.141-234.088 97.162l-0.008 0.008c-60.373 60.702-97.691 144.385-97.691 236.784 0 43.055 8.103 84.217 22.866 122.045l-0.785-2.286c1.386 4.004 2.978 7.802 4.774 11.806 53.622 117.976 170.436 198.53 306.066 198.53 7.9 0 15.735-0.274 23.499-0.811l-1.048 0.058c9.331-0.858 16.606-8.561 16.785-18v-173.618c-0.087-22.102-18.026-39.987-40.14-39.987-0.018 0-0.036 0-0.054 0h0.003c-54.884 0-99.376-44.492-99.376-99.376s44.492-99.376 99.376-99.376v0c11.331 0.098 22.192 1.969 32.364 5.348l-0.745-0.215c40.075 13.254 68.528 50.264 68.783 93.956v651.982c0.056 22.098 17.984 39.99 40.089 39.99 0.18 0 0.361-0.001 0.54-0.004h151.348c0.046 0 0.1 0 0.154 0 21.999 0 39.832-17.833 39.832-39.832 0-0.054 0-0.108 0-0.162v0.008c0.379-108.953 88.776-197.133 197.775-197.161h0.003c0.046 0 0.1 0 0.154 0 22.094 0 40.009-17.897 40.038-39.984v-152.199c-0.029-22.090-17.944-39.987-40.038-39.987-0.054 0-0.108 0-0.162 0h0.008c-0.17 0-0.373 0-0.574 0-60.295 0-117.688 12.422-169.76 34.845l2.791-1.070c-10.266 4.414-20.532 8.983-30.183 14.218v-271.642c-0.63-165.335-121.977-302.141-280.45-326.891l-1.87-0.241c-14.915-2.35-32.162-3.728-49.719-3.799h-0.072zM353.237 516.859c-121.069-19.799-212.337-123.642-212.337-248.801 0-139.138 112.793-251.932 251.932-251.932 0.138 0 0.276 0 0.414 0h-0.021c13.437 0.041 26.6 1.067 39.462 3.007l-1.477-0.183c121.506 19.087 213.429 122.765 213.998 248.021v343.976c0 0.039 0 0.086 0 0.132 0 19.42 13.934 35.586 32.348 39.045l0.247 0.038c2.227 0.437 4.787 0.687 7.406 0.687 9.477 0 18.189-3.276 25.066-8.757l-0.081 0.063c22.12-17.173 47.345-32.065 74.362-43.56l2.224-0.841c28.105-12.261 60.701-21.149 94.811-25.056l1.589-0.148v73.301c-121.503 18.276-216.372 112.953-234.745 232.826l-0.195 1.55h-74.994v-612.325c-0.162-78.769-51.165-145.582-121.931-169.383l-1.263-0.369c-18.081-6.706-38.968-10.587-60.761-10.587-99.222 0-179.658 80.436-179.658 179.658 0 86.59 61.258 158.872 142.801 175.874l1.167 0.204v73.557z" />
<glyph unicode="&#xe953;" glyph-name="twitter" d="M709.39 770.536c-0.006 0-0.014 0-0.022 0-80.813 0-146.493-64.793-147.925-145.264l-0.002-0.134-1.429-80.352c-0.332-16.648-13.907-30.017-30.604-30.017-1.441 0-2.859 0.099-4.247 0.292l0.16-0.018-79.638 10.815c-117.032 19.274-219.776 70.104-302.111 143.373l0.601-0.526c-30.61-168.866 29.080-285.694 172.59-376.097l89.127-56.118c8.661-5.506 14.323-15.050 14.323-25.917 0-10.13-4.922-19.111-12.504-24.683l-0.085-0.060-81.219-59.129c11.867-0.948 25.692-1.489 39.645-1.489 32.723 0 64.752 2.974 95.831 8.664l-3.24-0.493c240.544 47.905 400.738 229.168 400.738 527.923-19.849 63.761-78.334 109.248-147.445 109.248-0.894 0-1.788-0.007-2.68-0.023l0.134 0.002zM459.407 627.179c2.542 136.102 113.472 245.456 249.941 245.456 69.565 0 132.493-28.415 177.811-74.271l0.024-0.024c7.478-1.007 16.122-1.582 24.901-1.582 41.58 0 80.146 12.899 111.916 34.916l-0.652-0.427c-6.713-64.107-28.906-121.96-62.745-171.185l0.811 1.248c0-389.872-239.779-579.45-482.773-627.967-166.724-33.263-409.156 21.376-478.641 93.922 97.445 5.804 187.094 34.436 265.171 80.574l-2.741-1.498c-70.352 46.374-350.384 211.159-166.366 654.19 69.712-87.315 157.653-157.071 258.335-204.109l4.401-1.847c29.346-14.2 63.475-23.957 99.457-27.355l1.199-0.092z" />
<glyph unicode="&#xe954;" glyph-name="water" d="M512 826.72l-233.285-233.050c-59.693-59.699-96.613-142.168-96.613-233.261 0-182.198 147.701-329.898 329.898-329.898s329.898 147.701 329.898 329.898c0 91.093-36.92 173.563-96.613 233.262v0zM512 960l299.925-299.925c76.755-76.757 124.23-182.795 124.23-299.92 0-234.254-189.901-424.155-424.155-424.155s-424.155 189.901-424.155 424.155c0 117.126 47.474 223.164 124.231 299.922l299.924 299.924z" />
<glyph unicode="&#xe955;" glyph-name="youtube" d="M901.405 704.243c-3.336 14.352-13.763 25.677-27.302 30.223l-0.293 0.085c-88.022 13.896-189.523 21.835-292.877 21.835-24.241 0-48.381-0.437-72.411-1.303l3.479 0.1c-20.761 0.781-45.142 1.225-69.627 1.225-103.143 0-204.442-7.891-303.328-23.102l11.045 1.398c-13.779-4.677-24.157-15.988-27.438-30.027l-0.055-0.282c-13.034-68.529-20.489-147.355-20.489-227.923 0-10.011 0.115-19.996 0.344-29.953l-0.026 1.481c-0.198-8.403-0.311-18.301-0.311-28.227 0-80.617 7.453-159.493 21.708-235.977l-1.225 7.912c3.339-14.309 13.745-25.596 27.252-30.121l0.293-0.085c88.003-13.935 189.477-21.895 292.811-21.895 24.282 0 48.461 0.439 72.53 1.312l-3.482-0.1c20.768-0.781 45.16-1.226 69.656-1.226 103.134 0 204.423 7.892 303.3 23.103l-11.044-1.398c13.779 4.677 24.157 15.988 27.438 30.027l0.055 0.282c13.031 68.576 20.485 147.455 20.485 228.076 0 9.958-0.114 19.889-0.34 29.792l0.026-1.474c0.197 8.378 0.31 18.246 0.31 28.141 0 80.629-7.453 159.518-21.707 236.015l1.225-7.916zM1000.573 729.841c14.904-81.762 23.427-175.859 23.427-271.947 0-3.477-0.011-6.952-0.034-10.425l0.002 0.533c0.019-2.864 0.029-6.254 0.029-9.645 0-96.084-8.522-190.178-24.853-281.565l1.427 9.628c-12.665-49.999-50.26-88.967-98.458-103.362l-1.019-0.262c-87.034-24.369-389.097-24.369-389.097-24.369s-301.704 0-389.352 24.369c-49.111 14.732-86.6 53.68-99.006 102.627l-0.214 0.995c-14.904 81.758-23.426 175.853-23.426 271.937 0 3.391 0.011 6.778 0.032 10.165l-0.002-0.52c-0.019 2.864-0.029 6.254-0.029 9.645 0 96.084 8.522 190.178 24.853 281.565l-1.427-9.628c12.62 49.942 50.109 88.892 98.201 103.359l1.019 0.263c87.649 24.369 389.352 24.369 389.352 24.369s302.061 0 389.097-24.369c49.216-14.655 86.81-53.624 99.262-102.627l0.215-0.995zM409.608 268.813v358.379l307.181-179.189z" />
</font>
</defs>
</svg>
