<svg xmlns="http://www.w3.org/2000/svg" xmlns:xlink="http://www.w3.org/1999/xlink" width="20" height="20" viewBox="0 0 20 20">
  <defs>
    <clipPath id="clip-path">
      <rect id="Прямоугольник_1694" data-name="Прямоугольник 1694" width="20" height="20" transform="translate(128 2358)" fill="#d4d4d4"/>
    </clipPath>
  </defs>
  <g id="Группа_масок_153" data-name="Группа масок 153" transform="translate(-128 -2358)" clip-path="url(#clip-path)">
    <g id="football-line" transform="translate(128 2358)">
      <path id="Контур_989" data-name="Контур 989" d="M0,0H20V20H0Z" fill="none"/>
      <path id="Контур_990" data-name="Контур 990" d="M9.833,1.5A8.333,8.333,0,1,1,1.5,9.833,8.333,8.333,0,0,1,9.833,1.5Zm1.392,11.667H8.442l-1.15,1.581.462,1.422a6.7,6.7,0,0,0,4.16,0l.461-1.422-1.15-1.581ZM4.245,8.893l-1.077.781,0,.159A6.638,6.638,0,0,0,4.4,13.7H5.993l1.1-1.517L6.239,9.542,4.245,8.893Zm11.177,0-1.994.648-.857,2.642,1.1,1.517h1.592A6.637,6.637,0,0,0,16.5,9.833l0-.158-1.076-.782ZM9.833,7.78,7.88,9.2l.747,2.3h2.413l.747-2.3Zm1.909-4.336-1.076.783v2.1l2.245,1.631,1.866-.606.462-1.419a6.678,6.678,0,0,0-3.5-2.487Zm-3.819,0a6.678,6.678,0,0,0-3.5,2.488L4.889,7.35l1.866.606L9,6.325v-2.1L7.923,3.444Z" transform="translate(0.167 0.167)"/>
    </g>
  </g>
</svg>
