<svg xmlns="http://www.w3.org/2000/svg" xmlns:xlink="http://www.w3.org/1999/xlink" width="20" height="20" viewBox="0 0 20 20">
  <defs>
    <clipPath id="clip-path">
      <rect id="Прямоугольник_1697" data-name="Прямоугольник 1697" width="20" height="20" transform="translate(598.063 2278.063)" fill="#d4d4d4"/>
    </clipPath>
  </defs>
  <g id="Группа_масок_156" data-name="Группа масок 156" transform="translate(-598.063 -2278.063)" clip-path="url(#clip-path)">
    <path id="Next_to_you_Queen_Квартиры_в_аренду_в_г._Majorstuen_Осло_Норвегия-25" data-name="Next to you Queen — Квартиры в аренду в г. Majorstuen, Осло, Норвегия-25" d="M17.327,1.736a1.289,1.289,0,0,1,1.282,1.2l0,.1v9.583l1.562,4.193a1.3,1.3,0,0,1-.566,1.578l-.093.048-.093.039a1.279,1.279,0,0,1-.336.078l-.115.005H1.542a1.283,1.283,0,0,1-1.023-.51A1.3,1.3,0,0,1,.3,16.915l.035-.11L1.9,12.614V3.029A1.291,1.291,0,0,1,2.991,1.75l.1-.012.1,0Zm.2,11.643H2.988L1.542,17.259H18.971Zm-5.339,1.294v1.294H8.328V14.672ZM17.327,3.029H3.186v9.055H17.326ZM10.256,4.323a.647.647,0,1,1-.643.647A.645.645,0,0,1,10.256,4.323Z" transform="translate(597.806 2278.327)"/>
  </g>
</svg>
