<svg xmlns="http://www.w3.org/2000/svg" xmlns:xlink="http://www.w3.org/1999/xlink" width="20" height="20" viewBox="0 0 20 20">
  <defs>
    <clipPath id="clip-path">
      <rect id="Прямоугольник_1701" data-name="Прямоугольник 1701" width="20" height="20" transform="translate(598 2398)" fill="#d4d4d4"/>
    </clipPath>
  </defs>
  <g id="Группа_масок_160" data-name="Группа масок 160" transform="translate(-598 -2398)" clip-path="url(#clip-path)">
    <g id="store-line" transform="translate(598 2398)">
      <path id="Контур_997" data-name="Контур 997" d="M0,0H20V20H0Z" fill="none"/>
      <path id="Контур_998" data-name="Контур 998" d="M17.333,9.538v7.8a.833.833,0,0,1-.833.833H3.167a.833.833,0,0,1-.833-.833v-7.8a3.321,3.321,0,0,1-.833-2.2v-5A.833.833,0,0,1,2.333,1.5h15a.833.833,0,0,1,.833.833v5A3.325,3.325,0,0,1,17.333,9.538Zm-1.667,1.023a3.339,3.339,0,0,1-3.333-1.023,3.334,3.334,0,0,1-5,0A3.325,3.325,0,0,1,4,10.562V16.5H15.667V10.562ZM11.5,7.333a.833.833,0,1,1,1.667,0,1.667,1.667,0,0,0,3.333,0V3.167H3.167V7.333a1.667,1.667,0,0,0,3.333,0,.833.833,0,0,1,1.667,0,1.667,1.667,0,0,0,3.333,0Z" transform="translate(0.167 0.167)"/>
    </g>
  </g>
</svg>
