<svg xmlns="http://www.w3.org/2000/svg" xmlns:xlink="http://www.w3.org/1999/xlink" width="20" height="20" viewBox="0 0 20 20">
  <defs>
    <clipPath id="clip-path">
      <rect id="Прямоугольник_1698" data-name="Прямоугольник 1698" width="20" height="20" transform="translate(598 2358)" fill="#d4d4d4"/>
    </clipPath>
  </defs>
  <g id="Группа_масок_157" data-name="Группа масок 157" transform="translate(-598 -2358)" clip-path="url(#clip-path)">
    <g id="building-line" transform="translate(598 2358)">
      <path id="Контур_993" data-name="Контур 993" d="M0,0H20V20H0Z" fill="none"/>
      <path id="Контур_994" data-name="Контур 994" d="M17.417,15.583h1.667V17.25H.75V15.583H2.417V3.083A.833.833,0,0,1,3.25,2.25h8.333a.833.833,0,0,1,.833.833v12.5H15.75V8.917H14.083V7.25h2.5a.833.833,0,0,1,.833.833ZM4.083,3.917V15.583H10.75V3.917Zm1.667,5H9.083v1.667H5.75Zm0-3.333H9.083V7.25H5.75Z" transform="translate(0.083 0.25)"/>
    </g>
  </g>
</svg>
