<svg xmlns="http://www.w3.org/2000/svg" xmlns:xlink="http://www.w3.org/1999/xlink" width="20" height="20" viewBox="0 0 20 20">
  <defs>
    <clipPath id="clip-path">
      <rect id="Прямоугольник_1699" data-name="Прямоугольник 1699" width="20" height="20" transform="translate(128 2398)" fill="#d4d4d4"/>
    </clipPath>
  </defs>
  <g id="Группа_масок_158" data-name="Группа масок 158" transform="translate(-128 -2398)" clip-path="url(#clip-path)">
    <path id="Next_to_you_Queen_Квартиры_в_аренду_в_г._Majorstuen_Осло_Норвегия-13" data-name="Next to you Queen — Квартиры в аренду в г. Majorstuen, Осло, Норвегия-13" d="M9.955,1.1a.667.667,0,0,1,1.293.01,11.967,11.967,0,0,0,3.076,5.768,11.974,11.974,0,0,0,5.768,3.077.666.666,0,0,1,0,1.295,11.974,11.974,0,0,0-5.768,3.077,11.974,11.974,0,0,0-3.077,5.768.666.666,0,0,1-1.295,0,11.974,11.974,0,0,0-3.077-5.768,11.974,11.974,0,0,0-5.768-3.077A.667.667,0,0,1,1.1,9.955,12.3,12.3,0,0,0,6.829,6.828,12.294,12.294,0,0,0,9.955,1.1Zm.63,2.345L10.5,3.66A12.925,12.925,0,0,1,8.2,7.316l-.22.238-.212.217a12.651,12.651,0,0,1-3.8,2.587L3.66,10.5l-.217.089.235.093a12.573,12.573,0,0,1,3.685,2.271l.239.22.217.213A12.278,12.278,0,0,1,10.388,17.2l.135.32.077.194.077-.195a12.588,12.588,0,0,1,2.272-3.685l.22-.239.213-.217A12.278,12.278,0,0,1,17.2,10.812l.32-.135.195-.077-.2-.077a12.407,12.407,0,0,1-4.141-2.7A12.278,12.278,0,0,1,10.812,4l-.135-.32-.092-.234ZM17.945.849a.333.333,0,0,1,.646,0A2.376,2.376,0,0,0,19.2,2a2.376,2.376,0,0,0,1.147.609.334.334,0,0,1,0,.648,2.376,2.376,0,0,0-1.147.609,2.376,2.376,0,0,0-.609,1.147.334.334,0,0,1-.648,0,2.376,2.376,0,0,0-.609-1.147,2.376,2.376,0,0,0-1.147-.609.334.334,0,0,1,0-.647,2.448,2.448,0,0,0,1.141-.62,2.448,2.448,0,0,0,.62-1.141Z" transform="translate(127.4 2397.4)"/>
  </g>
</svg>
