<svg xmlns="http://www.w3.org/2000/svg" xmlns:xlink="http://www.w3.org/1999/xlink" width="20" height="20" viewBox="0 0 20 20">
  <defs>
    <clipPath id="clip-path">
      <rect id="Прямоугольник_1696" data-name="Прямоугольник 1696" width="20" height="20" transform="translate(598 2318)" fill="#d4d4d4"/>
    </clipPath>
  </defs>
  <g id="Группа_масок_155" data-name="Группа масок 155" transform="translate(-598 -2318)" clip-path="url(#clip-path)">
    <path id="Next_to_you_Queen_Квартиры_в_аренду_в_г._Majorstuen_Осло_Норвегия-21" data-name="Next to you Queen — Квартиры в аренду в г. Majorstuen, Осло, Норвегия-21" d="M17.2.6a3.333,3.333,0,0,1,3.333,3.333c0,4.259-1.061,8.791-2.667,9.8V20.6H16.533V13.729c-1.576-.985-2.628-5.375-2.665-9.566v-.23l0-.145A3.333,3.333,0,0,1,17.2.6Zm-6,0V12.679A3.885,3.885,0,0,1,13.867,16.6c0,2.18-1.455,4-3.333,4S7.2,18.78,7.2,16.6a3.884,3.884,0,0,1,2.667-3.921V.6ZM1.2.6h.667c2.98,0,4.623,4.243,4.666,12.337v1h-4V20.6H1.2Zm9.333,13.333c-1.068,0-2,1.165-2,2.667s.932,2.667,2,2.667,2-1.165,2-2.667S11.6,13.933,10.533,13.933Zm-8-11.841V12.6H5.2l-.011-.643-.018-.633C4.982,6.038,4.023,3.015,2.683,2.176L2.6,2.129ZM15.2,3.816l0,.117V4.14a23.292,23.292,0,0,0,1.333,7.593V2.047A2,2,0,0,0,15.2,3.816Zm2.664-1.769v9.684a23.415,23.415,0,0,0,1.333-7.8,2,2,0,0,0-1.333-1.886Z" transform="translate(597.133 2317.4)"/>
  </g>
</svg>
