<svg xmlns="http://www.w3.org/2000/svg" xmlns:xlink="http://www.w3.org/1999/xlink" width="20" height="20" viewBox="0 0 20 20">
  <defs>
    <clipPath id="clip-path">
      <rect id="Прямоугольник_1693" data-name="Прямоугольник 1693" width="20" height="20" transform="translate(378 2278)" fill="#d4d4d4"/>
    </clipPath>
  </defs>
  <g id="Группа_масок_152" data-name="Группа масок 152" transform="translate(-378 -2278)" clip-path="url(#clip-path)">
    <g id="wifi-line" transform="translate(378 2278)">
      <path id="Контур_987" data-name="Контур 987" d="M0,0H20V20H0Z" fill="none"/>
      <path id="Контур_988" data-name="Контур 988" d="M.517,5.581a15,15,0,0,1,18.85,0l-1.047,1.3a13.335,13.335,0,0,0-16.757,0ZM3.135,8.823a10.836,10.836,0,0,1,13.615,0l-1.047,1.3a9.169,9.169,0,0,0-11.52,0l-1.048-1.3Zm2.618,3.242a6.667,6.667,0,0,1,8.378,0l-1.048,1.3a5,5,0,0,0-6.283,0l-1.047-1.3Zm2.618,3.242a2.5,2.5,0,0,1,3.142,0L9.943,17.25,8.372,15.305Z" transform="translate(0.057 0.25)"/>
    </g>
  </g>
</svg>
