<?xml version="1.0" standalone="no"?>
<!DOCTYPE svg PUBLIC "-//W3C//DTD SVG 1.1//EN" "http://www.w3.org/Graphics/SVG/1.1/DTD/svg11.dtd" >
<svg xmlns="http://www.w3.org/2000/svg">
<metadata>Generated by IcoMoon</metadata>
<defs>
<font id="icomoon" horiz-adv-x="1024">
<font-face units-per-em="1024" ascent="960" descent="-64" />
<missing-glyph horiz-adv-x="1024" />
<glyph unicode="&#x20;" horiz-adv-x="512" d="" />
<glyph unicode="&#xe900;" glyph-name="building" d="M93.091 80.614v619.055c0 0.004 0 0.009 0 0.014 0 19.994 12.607 37.044 30.305 43.634l0.322 0.105 450.141 163.654c2.367 0.889 5.103 1.403 7.959 1.403 12.853 0 23.272-10.419 23.272-23.272 0-0.002 0-0.005 0-0.008v0-230.54l293.981-97.745c18.656-6.349 31.838-23.715 31.838-44.161 0-0.086 0-0.171-0.001-0.257v0.013-431.895h93.091v-93.091h-1024v93.091zM186.182 80.614h325.818v704.931l-325.818-118.459zM837.818 80.614v398.336l-232.727 77.591v-475.927z" />
<glyph unicode="&#xe901;" glyph-name="map" d="M512 69.28l233.285 233.285c59.693 59.699 96.613 142.168 96.613 233.261 0 182.198-147.701 329.898-329.898 329.898s-329.898-147.701-329.898-329.898c0-91.093 36.92-173.563 96.613-233.262v0zM512-64l-299.925 299.925c-76.755 76.757-124.23 182.795-124.23 299.92 0 234.254 189.901 424.155 424.155 424.155s424.155-189.901 424.155-424.155c0-117.126-47.474-223.164-124.231-299.922v0zM512 441.592c52.056 0 94.256 42.2 94.256 94.256s-42.2 94.256-94.256 94.256c-52.056 0-94.256-42.2-94.256-94.256v0c0-52.056 42.2-94.256 94.256-94.256v0zM512 347.336c-104.113 0-188.514 84.4-188.514 188.514s84.4 188.514 188.514 188.514c104.113 0 188.514-84.4 188.514-188.514v0c0-104.113-84.4-188.514-188.514-188.514v0z" />
<glyph unicode="&#xe902;" glyph-name="equalizer" d="M213.636 140.935c21.649 60.261 78.298 102.583 144.832 102.583s123.183-42.321 144.495-101.512l0.337-1.070h520.472v-102.354h-520.472c-21.649-60.261-78.298-102.583-144.832-102.583s-123.183 42.321-144.495 101.512l-0.337 1.070h-213.409v102.354zM520.7 499.176c21.649 60.261 78.298 102.583 144.832 102.583s123.183-42.321 144.495-101.512l0.337-1.070h213.409v-102.354h-213.409c-21.649-60.261-78.298-102.583-144.832-102.583s-123.183 42.321-144.495 101.512l-0.337 1.070h-520.472v102.354zM213.636 857.416c21.649 60.261 78.298 102.583 144.832 102.583s123.183-42.321 144.495-101.512l0.337-1.070h520.472v-102.354h-520.472c-21.649-60.261-78.298-102.583-144.832-102.583s-123.183 42.321-144.495 101.512l-0.337 1.070h-213.409v102.354zM358.468 755.062c28.264 0 51.178 22.913 51.178 51.178s-22.913 51.178-51.178 51.178c-28.264 0-51.178-22.913-51.178-51.178v0c0-28.264 22.913-51.178 51.178-51.178v0zM665.532 396.821c28.264 0 51.178 22.913 51.178 51.178s-22.913 51.178-51.178 51.178c-28.264 0-51.178-22.913-51.178-51.178v0c0-28.264 22.913-51.178 51.178-51.178v0zM358.468 38.581c28.264 0 51.178 22.913 51.178 51.178s-22.913 51.178-51.178 51.178c-28.264 0-51.178-22.913-51.178-51.178v0c0-28.264 22.913-51.178 51.178-51.178v0z" />
<glyph unicode="&#xe903;" glyph-name="left" d="M426.637 448.060l398.162 398.162-113.778 113.778-511.94-511.94 512.060-512.060 113.778 113.778z" />
<glyph unicode="&#xe904;" glyph-name="right" d="M597.233 448l-398.115 398.235 113.765 113.765 512-512-512-512-113.765 113.765z" />
<glyph unicode="&#xe905;" glyph-name="up" d="M511.94 533.363l-398.162-398.162-113.778 113.778 511.94 511.94 512.060-512.060-113.778-113.778z" />
<glyph unicode="&#xe906;" glyph-name="down" d="M511.94 362.637l-398.162 398.162-113.778-113.778 511.94-511.94 512.060 512.060-113.778 113.778z" />
<glyph unicode="&#xe907;" glyph-name="phone" d="M362.292 523.164c54.321-94.252 130.476-170.408 221.833-223.186l2.896-1.543 50.155 70.171c10.432 14.587 27.315 23.982 46.392 23.982 9.968 0 19.337-2.564 27.483-7.070l-0.292 0.148c75.313-41.962 163.959-69.769 258.303-77.412l2.307-0.151c29.413-2.4 52.372-26.862 52.372-56.686 0-0.063 0-0.125 0-0.188v0.009-253.73c0-0.085 0.001-0.185 0.001-0.285 0-29.403-22.316-53.594-50.936-56.558l-0.244-0.020c-27.112-2.957-58.555-4.645-90.393-4.645-487.066 0-881.912 394.846-881.912 881.912 0 32.020 1.706 63.641 5.034 94.778l-0.336-3.869c2.985 28.862 27.176 51.179 56.58 51.179 0.1 0 0.2 0 0.3-0.001h253.429c0.053 0 0.115 0 0.177 0 29.825 0 54.286-22.961 56.673-52.17l0.013-0.204c7.773-96.559 35.518-185.127 79.085-263.71l-1.693 3.328c4.441-7.914 7.057-17.37 7.057-27.436 0-19.136-9.452-36.063-23.94-46.369l-0.175-0.119-70.398-50.268zM218.88 560.524l108.043 77.166c-28.782 60.489-50.584 130.679-61.847 204.338l-0.533 4.242h-149.952c-0.569-9.44-0.569-18.936-0.569-28.432 0-423.973 343.698-767.671 767.671-767.671v0c9.496 0 18.993 0 28.432 0.569v149.952c-77.912 11.856-148.095 33.715-213.215 64.524l4.637-1.972-77.166-108.043c-35.57 13.902-65.295 28.228-93.781 44.477l3.48-1.829-3.299 1.877c-112.088 64.607-202.656 155.175-265.428 263.819l-1.835 3.444-1.877 3.299c-14.42 25.007-28.746 54.733-40.973 85.518l-1.675 4.782z" />
<glyph unicode="&#xe908;" glyph-name="earth" d="M216.833 732.006c-71.080-73.571-114.878-173.895-114.878-284.449 0-226.215 183.384-409.599 409.599-409.599 56.539 0 110.404 11.455 159.397 32.172l-2.688-1.009c0.755 6.136 1.184 13.24 1.184 20.443 0 24.434-4.952 47.712-13.909 68.885l0.436-1.16c-32.43 55.799-70.714 103.717-115.016 145.299l-0.337 0.313c-17.305 18.176-16.18 32.154-9.984 73.574l0.666 4.66c4.199 28.364 11.264 45.158 106.752 60.313 5.395 1.601 11.593 2.522 18.007 2.522 27.323 0 50.741-16.721 60.578-40.488l0.16-0.434 5.939-8.807c11.209-17.789 27.758-31.327 47.375-38.498l0.652-0.209c8.448-3.84 18.944-8.704 33.024-16.64 33.383-19.098 33.383-40.652 33.383-87.859v-5.12c0.001-0.216 0.001-0.472 0.001-0.727 0-18.475-1.865-36.516-5.416-53.942l0.294 1.728c55.619 69.328 89.263 158.364 89.263 255.258 0 167.784-100.883 312.006-245.3 375.316l-2.633 1.028c-30.66-18.863-57.158-40.28-80.621-64.642l-0.121-0.126c-6.912-9.472-16.742-57.959-48.64-61.952-3.874-0.284-8.39-0.446-12.947-0.446-6.493 0-12.911 0.33-19.235 0.973l0.796-0.066c-31.847 2.048-75.366 4.864-89.293-32.972-3.704-12.408-5.836-26.665-5.836-41.42 0-30.278 8.977-58.462 24.414-82.031l-0.35 0.571c2.779-4.45 4.428-9.854 4.428-15.644 0-3.934-0.761-7.691-2.144-11.13l0.071 0.2c-2.532-10.166-7.778-18.87-14.922-25.574l-0.028-0.026c-7.936 6.632-14.97 13.847-21.221 21.713l-0.233 0.304c-15.505 21.763-36.538 38.663-61.070 48.81l-0.932 0.342c-9.421 2.611-19.763 4.762-29.85 6.912-28.109 5.99-59.648 12.749-67.328 28.468-3.644 10.506-5.748 22.615-5.748 35.215 0 3.193 0.136 6.355 0.4 9.48l-0.028-0.408c0.236 3.293 0.372 7.134 0.372 11.008 0 20.795-3.894 40.681-10.992 58.968l0.379-1.112c-3.811 8.635-9.103 15.96-15.623 21.976l-0.044 0.041zM512-64c-282.769 0-512 229.23-512 512s229.23 512 512 512c282.769 0 512-229.23 512-512v0c0-282.769-229.23-512-512-512v0z" />
<glyph unicode="&#xe909;" glyph-name="at" d="M921.599 448.055c-0.025 226.196-183.399 409.556-409.599 409.556-226.215 0-409.599-183.384-409.599-409.599s183.384-409.599 409.599-409.599c84.689 0 163.375 25.702 228.683 69.732l-1.457-0.925 56.832-85.196c-79.819-53.89-178.185-86.024-284.058-86.024-282.769 0-512 229.23-512 512s229.23 512 512 512c282.749 0 511.966-229.196 512-511.938v-76.802c0-0.097 0-0.214 0-0.329 0-98.97-80.231-179.199-179.199-179.199-61.529 0-115.814 31.009-148.082 78.253l-0.397 0.617c-46.642-48.398-112.026-78.457-184.43-78.457-141.385 0-255.999 114.616-255.999 255.999s114.616 255.999 255.999 255.999c57.97 0 111.438-19.267 154.352-51.749l-0.641 0.466h102.4v-281.6c0-42.415 34.385-76.8 76.8-76.8s76.8 34.385 76.8 76.8v0zM512 601.655c-84.83 0-153.6-68.77-153.6-153.6s68.77-153.6 153.6-153.6c84.83 0 153.6 68.77 153.6 153.6v0c0 84.83-68.77 153.6-153.6 153.6v0z" />
<glyph unicode="&#xe90a;" glyph-name="instagram" d="M511.965 601.647c-84.82 0-153.579-68.759-153.579-153.579s68.759-153.579 153.579-153.579c84.82 0 153.579 68.759 153.579 153.579v0c0 84.82-68.759 153.579-153.579 153.579v0zM511.965 704.033c141.366 0 255.965-114.599 255.965-255.965s-114.599-255.965-255.965-255.965c-141.366 0-255.965 114.599-255.965 255.965v0c0 141.366 114.599 255.965 255.965 255.965v0zM844.719 716.865c0-35.36-28.666-64.026-64.026-64.026s-64.026 28.666-64.026 64.026c0 35.36 28.666 64.026 64.026 64.026v0c0.020 0 0.044 0 0.068 0 35.36 0 64.026-28.666 64.026-64.026 0-0.024 0-0.048 0-0.072v0.004zM511.965 857.613c-126.686 0-147.368-0.341-206.274-3.003-33.169-0.458-64.753-6.651-93.997-17.628l1.919 0.631c-42.027-16.586-74.674-49.233-90.883-90.179l-0.377-1.081c-10.331-27.331-16.502-58.92-16.926-91.895l-0.002-0.184c-3.003-56.517-3.003-76.517-3.003-206.206 0-126.686 0.341-147.368 3.003-206.274 0.466-33.141 6.632-64.701 17.559-93.939l-0.631 1.928c16.527-42.064 49.196-74.732 90.181-90.886l1.079-0.374c27.342-10.364 58.947-16.579 91.938-17.061l0.209-0.002c56.517-2.935 76.517-2.935 206.206-2.935 126.686 0 147.368 0.341 206.274 3.003 33.144 0.479 64.701 6.644 93.944 17.561l-1.933-0.632c21.674 8.157 40.138 20.41 55.256 35.938l0.032 0.034c15.629 15.119 27.913 33.593 35.703 54.269l0.337 1.020c10.32 27.347 16.511 58.951 16.994 91.937l0.002 0.21c2.663 56.517 3.003 76.312 3.003 206.274 0 126.686-0.341 147.368-3.003 206.274-0.47 33.17-6.662 64.753-17.628 94.002l0.632-1.922c-8.139 21.681-20.396 40.149-35.937 55.254l-0.035 0.034c-15.112 15.641-33.588 27.927-54.271 35.704l-1.018 0.336c-27.331 10.326-58.919 16.496-91.892 16.926l-0.187 0.002c-56.517 2.867-76.585 2.867-206.274 2.867zM511.965 959.998c139.109 0 156.446-0.546 211.053-3.072 44.888-0.961 87.473-9.616 126.883-24.69l-2.586 0.869c35.515-13.527 65.785-33.618 90.674-59.002l0.040-0.041c25.382-24.957 45.464-55.218 58.462-88.995l0.582-1.719c14.186-36.823 22.839-79.404 23.815-123.877l0.007-0.42c2.389-54.606 3.072-71.944 3.072-211.053s-0.546-156.446-3.072-211.053c-0.989-44.893-9.64-87.474-24.693-126.892l0.871 2.595c-27.138-69.016-80.74-122.618-147.986-149.141l-1.772-0.616c-36.823-14.186-79.404-22.839-123.877-23.815l-0.42-0.007c-54.606-2.389-71.944-3.072-211.053-3.072s-156.446 0.546-211.053 3.072c-44.893 0.989-87.474 9.64-126.892 24.693l2.595-0.871c-69.016 27.138-122.618 80.74-149.141 147.986l-0.616 1.772c-14.212 36.824-22.868 79.409-23.815 123.891l-0.007 0.406c-2.321 54.606-3.003 72.011-3.003 211.121s0.546 156.446 3.072 211.053c0.955 44.888 9.61 87.473 24.69 126.88l-0.869-2.583c27.154 68.989 80.752 122.566 147.984 149.073l1.772 0.616c36.824 14.212 79.409 22.868 123.891 23.815l0.406 0.007c54.538 2.389 71.944 3.072 210.984 3.072z" />
<glyph unicode="&#xe90b;" glyph-name="facebook" d="M705.524-64.001v396.343h132.706l19.886 154.028h-152.591v98.265c0 44.622 12.369 75.169 76.33 75.169h81.592v137.695c-34.538 3.877-74.579 6.088-115.136 6.088-1.324 0-2.647-0.003-3.969-0.007h0.203c-3.94 0.298-8.532 0.467-13.164 0.467-102.503 0-185.597-83.095-185.597-185.597 0-6.542 0.339-13.006 1-19.373l-0.067 0.797v-113.504h-133.253v-154.028h133.253v-396.343h-489.825c-31.4 0-56.855 25.455-56.855 56.855 0 0.024 0 0.048 0 0.072v-0.004 910.221c0 31.4 25.455 56.855 56.855 56.855v0h910.221c31.4 0 56.855-25.455 56.855-56.855v0-910.221c0-31.4-25.455-56.855-56.855-56.855v0z" />
<glyph unicode="&#xe90c;" glyph-name="share" d="M595.028 190.725l-215.036 117.271c-37.478-40.006-90.633-64.933-149.609-64.933-113.119 0-204.822 91.702-204.822 204.822s91.702 204.822 204.822 204.822c58.978 0 112.132-24.927 149.505-64.82l0.104-0.113 215.036 117.271c-3.958 15.049-6.23 32.326-6.23 50.134 0 113.119 91.702 204.822 204.822 204.822s204.822-91.702 204.822-204.822c0-113.119-91.702-204.822-204.822-204.822-58.93 0-112.047 24.886-149.414 64.723l-0.103 0.11-215.036-117.271c3.916-14.985 6.164-32.189 6.164-49.919s-2.249-34.934-6.475-51.343l0.311 1.424 215.036-117.271c37.47 39.947 90.587 64.834 149.517 64.834 113.119 0 204.822-91.702 204.822-204.822s-91.702-204.822-204.822-204.822c-113.119 0-204.822 91.702-204.822 204.822 0 17.808 2.273 35.085 6.543 51.556l-0.313-1.423zM230.465 345.551c56.539 0 102.372 45.833 102.372 102.372s-45.833 102.372-102.372 102.372c-56.539 0-102.372-45.833-102.372-102.372v0c0-56.539 45.833-102.372 102.372-102.372v0zM793.629 652.745c56.539 0 102.372 45.833 102.372 102.372s-45.833 102.372-102.372 102.372c-56.539 0-102.372-45.833-102.372-102.372v0c0-56.539 45.833-102.372 102.372-102.372v0zM793.629 38.357c56.539 0 102.372 45.833 102.372 102.372s-45.833 102.372-102.372 102.372c-56.539 0-102.372-45.833-102.372-102.372v0c0-56.539 45.833-102.372 102.372-102.372v0z" />
<glyph unicode="&#xe90d;" glyph-name="calculator" d="M102.4 960h819.2c28.277 0 51.2-22.924 51.2-51.2v0-921.599c0-28.277-22.924-51.2-51.2-51.2v0h-819.2c-28.277 0-51.2 22.924-51.2 51.2v0 921.599c0 28.277 22.924 51.2 51.2 51.2v0zM153.599 857.599v-819.2h716.799v819.2zM256 755.2h512v-204.8h-512zM256 448h102.4v-102.4h-102.4zM256 243.2h102.4v-102.4h-102.4zM460.799 448h102.4v-102.4h-102.4zM460.799 243.2h102.4v-102.4h-102.4zM665.599 448h102.4v-307.2h-102.4z" />
<glyph unicode="&#xe90e;" glyph-name="rectangle" d="M989.867 846.108c0.919 0.093 1.986 0.146 3.065 0.146 14.728 0 27.15-9.87 31.013-23.357l0.056-0.228v-746.438c-1.876-14.918-14.483-26.342-29.759-26.342-0.138 0-0.276 0.001-0.413 0.003h-959.694c-0.919-0.093-1.986-0.146-3.065-0.146-14.728 0-27.15 9.87-31.013 23.357l-0.056 0.228v746.211c1.771 15.025 14.43 26.569 29.786 26.569 0.128 0 0.257-0.001 0.385-0.002h3.963zM68.267 793.031v-690.289h424.676v690.289zM492.942 102.741h462.791v690.289h-462.791z" />
<glyph unicode="&#xe90f;" glyph-name="printer" d="M204.823 89.71h-153.649c0 0 0 0 0 0-28.198 0-51.070 22.807-51.176 50.982v512.071c0 28.263 22.912 51.176 51.176 51.176v0h153.649v204.886c0 28.263 22.912 51.176 51.176 51.176v0h512.062c28.263 0 51.176-22.912 51.176-51.176v0-204.824h153.588c28.263 0 51.176-22.912 51.176-51.176v0-512.062c0-28.263-22.912-51.176-51.176-51.176v0h-153.527v-102.412c0-28.263-22.912-51.176-51.176-51.176v0h-512.123c-28.263 0-51.176 22.912-51.176 51.176v0zM204.823 192.122v50.808c0 28.263 22.912 51.176 51.176 51.176v0h512.062c28.263 0 51.176-22.912 51.176-51.176v0-51.176h102.412v409.833h-819.237v-409.65zM307.236 857.589v-153.588h409.833v153.588zM307.236 191.939v-153.588h409.833v153.588zM153.586 550.351h153.649v-102.412h-153.649z" />
<glyph unicode="&#xe910;" glyph-name="search" d="M808.113 223.146l215.888-215.828-71.318-71.318-215.828 215.888c-76.867-61.826-175.656-99.234-283.182-99.234-250.556 0-453.673 203.117-453.673 453.673s203.117 453.673 453.673 453.673c250.556 0 453.673-203.117 453.673-453.673 0-107.526-37.408-206.315-99.919-284.063l0.685 0.881zM706.975 260.528c61.586 63.427 99.556 150.078 99.556 245.598 0 194.799-157.916 352.715-352.715 352.715s-352.715-157.916-352.715-352.715c0-194.799 157.916-352.715 352.715-352.715 95.519 0 182.171 37.969 245.684 99.639l-0.086-0.083z" />
<glyph unicode="&#xe911;" glyph-name="picture" d="M144.807-12.221l-1.053-1.053-1.053 1.053h-91.887c-28.064 0-50.814 22.751-50.814 50.814v0 819.867c0.198 27.984 22.83 50.616 50.795 50.814h922.391c28.064 0 50.814-22.751 50.814-50.814v0-819.779c-0.198-27.984-22.83-50.616-50.795-50.814h-0.019zM921.496 294.944v511.912h-819.077v-716.748l511.999 511.999zM921.496 150.137l-307.165 307.165-367.106-367.106h674.359zM307.166 499.691c-56.564 0-102.418 45.854-102.418 102.418s45.854 102.418 102.418 102.418c56.564 0 102.418-45.854 102.418-102.418v0c0-56.533-45.804-102.367-102.325-102.418h-0.005z" />
<glyph unicode="&#xe912;" glyph-name="medal" d="M748.837 285.334v-325.462c0-0.002 0-0.003 0-0.006 0-13.089-10.61-23.697-23.697-23.697-4.49 0-8.689 1.249-12.267 3.418l0.105-0.059-200.949 120.365-200.949-120.535c-3.473-2.11-7.671-3.359-12.162-3.359-13.089 0-23.697 10.61-23.697 23.697 0 0.002 0 0.004 0 0.006v0 325.633c-86.941 70.018-142.103 176.458-142.103 295.782 0 209.251 169.632 378.882 378.882 378.882s378.882-169.632 378.882-378.882c0-119.324-55.16-225.765-141.373-295.214l-0.729-0.568zM369.955 229.528v-144.46l142.074 85.244 142.074-85.244v144.46c-42.046-17.436-90.877-27.561-142.074-27.561s-100.028 10.125-144.601 28.484l2.527-0.921zM512.029 296.7c156.93 0 284.148 127.217 284.148 284.148s-127.217 284.148-284.148 284.148c-156.93 0-284.148-127.217-284.148-284.148v0c0-156.93 127.217-284.148 284.148-284.148v0z" />
<glyph unicode="&#xe913;" glyph-name="star-medal" d="M512 716.228c215.455 0 390.114-174.661 390.114-390.114s-174.661-390.114-390.114-390.114c-215.455 0-390.114 174.661-390.114 390.114v0c0 215.455 174.661 390.114 390.114 390.114v0zM512 618.685c-161.583 0-292.571-130.989-292.571-292.571s130.989-292.571 292.571-292.571c161.583 0 292.571 130.989 292.571 292.571v0c0 161.583-130.989 292.571-292.571 292.571v0zM512 545.542l64.366-130.663 144.179-20.949-104.331-101.698 24.634-143.653-128.848 67.818-128.731-67.76 24.634 143.594-104.624 101.698 144.354 21.007zM804.571 959.999v-146.286l-66.472-55.472c-51.409 27.534-111.527 46.405-175.304 52.903l-2.053 0.169v148.685zM463.257 959.999v-148.626c-65.81-6.677-125.906-25.546-179.907-54.343l2.609 1.27-66.53 55.413v146.286z" />
<glyph unicode="&#xe914;" glyph-name="build-line" d="M409.631 493.454v466.546l563.107-307.185v-716.815h-921.475v716.815zM512 787.707v-451.833l-358.369 159.284v-456.866h716.815v553.737l-358.369 195.368z" />
<glyph unicode="&#xe915;" glyph-name="square" d="M56.87 960h910.26c31.408 0 56.87-25.461 56.87-56.87v-910.26c0-31.408-25.461-56.87-56.87-56.87v0h-910.26c-31.408 0-56.87 25.461-56.87 56.87v0 910.26c0 31.408 25.461 56.87 56.87 56.87v0zM113.74 846.26v-796.435h796.435v796.435z" />
<glyph unicode="&#xe916;" glyph-name="drop" d="M512 826.531l-233.233-233.019c-59.659-59.677-96.557-142.11-96.557-233.16 0-182.137 147.652-329.79 329.79-329.79s329.79 147.652 329.79 329.79c0 91.051-36.898 173.484-96.557 233.16v0zM512 959.787l299.861-299.861c76.741-76.741 124.206-182.758 124.206-299.859 0-234.205-189.861-424.066-424.066-424.066s-424.066 189.861-424.066 424.066c0 117.102 47.464 223.118 124.206 299.859l299.861 300.074z" />
<glyph unicode="&#xe917;" glyph-name="hummer" d="M914.447 959.998c26.937 0 48.772-21.836 48.772-48.772v0-243.788c0-26.937-21.836-48.772-48.772-48.772h-244.085v-633.894c0-26.937-21.836-48.772-48.772-48.772v0h-195.090c-26.937 0-48.772 21.836-48.772 48.772v0 633.894h-268.175c-26.937 0-48.772 21.836-48.772 48.772v0 116.15c0.020 18.974 10.872 35.408 26.704 43.457l0.277 0.127 265.654 132.827zM670.362 862.527h-293.969l-217.994-109.034v-37.061h316.873v-682.667h97.545v682.444h97.545zM865.452 862.527h-97.545v-146.317h97.545z" />
<glyph unicode="&#xe918;" glyph-name="parking" d="M56.901 960h910.197c31.426 0 56.901-25.475 56.901-56.901v0-910.197c0-31.426-25.475-56.901-56.901-56.901v0h-910.197c-31.426 0-56.901 25.475-56.901 56.901v910.197c0 31.426 25.475 56.901 56.901 56.901v0zM113.803 846.197v-796.394h796.394v796.394zM341.332 732.469h199.080c109.969 0 199.118-89.147 199.118-199.118s-89.147-199.118-199.118-199.118v0h-85.277v-170.852h-113.803zM455.135 618.668v-170.852h85.277c47.18 0 85.426 38.247 85.426 85.426s-38.247 85.426-85.426 85.426v0z" />
<glyph unicode="&#xe919;" glyph-name="calendar" d="M767.961 857.584h204.831c28.281 0 51.208-22.926 51.208-51.208v0-819.169c0-28.281-22.926-51.208-51.208-51.208v0h-921.584c-28.281 0-51.208 22.926-51.208 51.208v0 819.169c0 28.281 22.926 51.208 51.208 51.208v0h204.753v102.416h102.416v-102.416h307.169v102.416h102.416zM665.546 755.169h-307.169v-102.416h-102.416v102.416h-153.623v-205.065h819.169v205.065h-153.546v-102.416h-102.416zM921.507 448h-819.169v-409.584h819.169z" />
<glyph unicode="&#xe91a;" glyph-name="elevator" d="M989.979 960c17.427-0.050 31.789-13.107 33.89-29.973l0.017-0.168v-959.952c-0.050-17.427-13.107-31.789-29.973-33.89l-0.168-0.017h-959.724c-17.427 0.050-31.789 13.107-33.89 29.973l-0.017 0.168v959.724c0.035 17.358 12.977 31.682 29.738 33.888l0.174 0.019h3.996zM68.157 891.73v-887.629h409.68v887.629zM307.161 584.455v-224.79l61.192 61.192 48.292-48.292-119.53-119.473c-6.191-6.157-14.725-9.962-24.149-9.962-7.899 0-15.173 2.674-20.968 7.166l0.078-0.058-3.197 2.854-119.53 119.473 48.292 48.292 61.192-61.192v224.79zM730.083 635.829c5.721 4.449 13.008 7.132 20.921 7.132s15.2-2.683 20.998-7.19l-0.077 0.058 3.197-2.854 119.473-119.473-48.292-48.292-61.192 60.964v-214.858h-68.499v214.858l-61.021-61.192-48.292 48.292 119.417 119.473zM546.107 4.1h409.68v887.629h-409.68z" />
<glyph unicode="&#xe91b;" glyph-name="bed" d="M877.682 923.478c0.061 0 0.132 0 0.204 0 38.483 0 70.026-29.713 72.939-67.448l0.016-0.25v-292.352l67.527-202.468c1.666-4.773 3.129-10.518 4.121-16.424l0.089-0.643 1.081-8.761 0.341-8.761v-353.849h-73.159v73.216h-877.739v-73.159h-73.102v353.849c0.002 9.312 1.163 18.352 3.348 26.984l-0.163-0.758 2.446 8.476 67.47 202.581v286.606c0.004 36.486 26.716 66.732 61.651 72.252l0.415 0.054 5.689 0.683h5.689zM950.841 265.16h-877.739v-146.261h877.739zM900.096 484.581h-776.249l-48.754-146.261h873.756zM877.739 850.319h-731.477v-292.58h73.159v146.261c0 0.011 0 0.024 0 0.038 0 38.463 29.681 69.993 67.389 72.935l0.252 0.016h444.53c0.011 0 0.024 0 0.038 0 38.463 0 69.993-29.681 72.935-67.389l0.016-0.252v-151.609h73.159zM475.42 704.001h-182.841v-146.261h182.841zM731.42 704.001h-182.841v-146.261h182.841z" />
<glyph unicode="&#xe91c;" glyph-name="wifi" d="M0 674.145c138.438 112.528 316.885 180.678 511.25 180.678s372.811-68.15 512.75-181.859l-1.499 1.18-56.775-70.336c-123.061 100.040-281.693 160.627-454.475 160.627s-331.414-60.588-455.808-161.677l1.334 1.050zM141.999 498.334c99.992 81.257 228.875 130.468 369.252 130.468s269.258-49.211 370.337-131.322l-1.085 0.854-56.835-70.336c-84.611 68.754-193.666 110.392-312.446 110.392s-227.835-41.639-313.364-111.115l0.919 0.723-56.775 70.397zM284.058 322.463c61.533 50.027 140.854 80.326 227.253 80.326s165.72-30.298 227.918-80.85l-0.666 0.524-56.835-70.336c-46.146 37.509-105.629 60.226-170.416 60.226s-124.271-22.717-170.917-60.62l0.5 0.393-56.835 70.397zM426.056 146.653c23.066 18.758 52.803 30.118 85.193 30.118s62.126-11.361 85.443-30.314l-0.249 0.196-85.163-105.475-85.224 105.475z" />
<glyph unicode="&#xe91d;" glyph-name="ball" d="M512 960c282.769 0 512-229.23 512-512s-229.23-512-512-512c-282.769 0-512 229.23-512 512v0c0 282.769 229.23 512 512 512v0zM597.538 243.2h-171.077l-70.656-97.144 28.399-87.382c38.16-12.888 82.109-20.326 127.795-20.326s89.635 7.438 130.701 21.168l-2.906-0.842 28.331 87.382-70.656 97.144zM168.619 505.754l-66.218-47.992v-9.762c0-0.205 0-0.449 0-0.691 0-88.865 28.422-171.091 76.673-238.085l-0.828 1.208h97.826l67.721 93.184-52.633 162.338-122.471 39.799zM855.313 505.754l-122.539-39.799-52.633-162.338 67.652-93.184h97.826c47.506 65.815 75.982 148.105 75.982 237.045 0 0.184 0 0.367 0 0.551v-0.029 9.694l-66.082 47.786zM512 574.157l-120.013-87.176 45.875-141.38h148.207l45.875 141.38zM629.282 840.396l-66.082-47.786v-129.024l137.966-100.216 114.619 37.205 28.399 87.176c-52.462 72.011-126.246 125.682-211.997 152.012l-2.908 0.768zM394.65 840.396c-88.598-27.103-162.332-80.747-213.954-151.543l-0.812-1.169 28.331-87.108 114.619-37.205 137.966 100.216v128.819l-66.15 48.128z" />
<glyph unicode="&#xe91e;" glyph-name="police" d="M186.058 792.25v-427.536c0-0.070 0-0.152 0-0.235 0-64.337 32.633-121.052 82.25-154.496l0.662-0.421 242.905-161.729 242.905 161.978c50.28 33.865 82.913 90.58 82.913 154.917 0 0.083 0 0.165 0 0.248v-0.013 427.287l-325.818 72.362zM129.398 875.038l382.479 84.961 382.479-84.961c20.997-4.795 36.428-23.309 36.43-45.429v0-464.834c0-0.044 0-0.094 0-0.145 0-96.4-48.843-181.393-123.133-231.58l-0.988-0.629-294.788-196.421-294.54 196.359c-75.278 50.817-124.121 135.809-124.121 232.21 0 0.029 0 0.059 0 0.088v-0.004 464.896c0.002 22.119 15.433 40.634 36.117 45.368l0.313 0.060zM511.877 378.182l-136.534-71.928 25.817 152.296-110.592 107.924 153.041 22.217 68.267 138.581 68.267-138.581 152.917-22.28-110.468-107.861 26.065-152.296z" />
<glyph unicode="&#xe91f;" glyph-name="kitchen" d="M836.267 960c94.257 0 170.667-76.41 170.667-170.667v0c0-218.055-54.329-450.105-136.533-501.532v-351.801h-68.267v351.801c-80.668 50.46-134.542 275.172-136.533 489.756v19.172c4.070 91.020 78.851 163.271 170.506 163.271 0.056 0 0.113 0 0.169 0h-0.009zM529.067 960v-618.439c80.16-26.959 136.873-101.423 136.873-189.134 0-4.090-0.123-8.152-0.366-12.181l0.027 0.554c0-111.616-74.524-204.8-170.667-204.8s-170.667 93.184-170.667 204.8c-0.216 3.475-0.34 7.537-0.34 11.627 0 87.71 56.713 162.175 135.469 188.723l1.404 0.411v618.439zM17.067 960h34.133c152.576 0 236.658-217.259 238.933-631.467v-51.2h-204.8v-341.333h-68.267zM494.933 277.333c-58.961-10.112-103.265-60.848-103.265-121.932 0-5.146 0.314-10.218 0.925-15.198l-0.060 0.597c-0.551-4.383-0.865-9.455-0.865-14.601 0-61.084 44.304-111.82 102.531-121.828l0.734-0.104c58.961 10.112 103.265 60.848 103.265 121.932 0 5.146-0.314 10.218-0.925 15.198l0.060-0.597c0.551 4.383 0.865 9.455 0.865 14.601 0 61.084-44.304 111.82-102.531 121.828l-0.734 0.104zM85.333 883.598v-537.998h136.533l-0.569 32.882-0.91 32.37c-9.899 270.734-58.766 425.472-127.431 468.48l-4.096 2.389zM733.867 795.364v-16.612c1.089-139.655 26.013-273.148 70.894-397.082l-2.627 8.303v496.071c-38.315-13.752-65.716-48.658-68.253-90.28l-0.014-0.287zM870.4 886.044v-495.844c43.254 118.758 68.267 255.848 68.267 398.781 0 0.124 0 0.247 0 0.371v-0.019c0 0.050 0 0.109 0 0.167 0 44.319-28.155 82.062-67.554 96.318l-0.713 0.225z" />
<glyph unicode="&#xe920;" glyph-name="laptop" d="M874.114 875.848c0.005 0 0.010 0 0.016 0 34.62 0 63-26.721 65.64-60.663l0.014-0.226v-492.693l80.010-213.397c2.663-6.877 4.206-14.836 4.206-23.155 0-24.366-13.237-45.642-32.911-57.027l-0.317-0.169-4.78-2.447-4.723-1.992c-4.991-1.939-10.779-3.329-16.805-3.906l-0.266-0.021h-898.547c-36.281 0.108-65.65 29.544-65.65 65.84 0 6.155 0.844 12.113 2.424 17.763l-0.111-0.463 1.821 5.691 80.010 213.284v487.742c0 0.005 0 0.011 0 0.018 0 32.848 24.054 60.077 55.509 65.035l0.372 0.048 5.065 0.569h4.893zM884.357 283.285h-744.673l-73.978-197.521h892.628zM610.924 217.445v-65.84h-197.692v65.84zM874.114 810.008h-724.244v-460.939h724.187zM511.964 744.168c18.197 0 32.949-14.751 32.949-32.949s-14.751-32.949-32.949-32.949c-18.197 0-32.949 14.751-32.949 32.949v0c0 18.197 14.751 32.949 32.949 32.949v0z" />
<glyph unicode="&#xe921;" glyph-name="terrace" d="M930.91 122.182h93.091v-93.091h-1024v93.091h93.091v698.182c0 25.706 20.84 46.546 46.546 46.546v0h465.455c25.706 0 46.546-20.84 46.546-46.546v0-698.182h186.182v372.363h-93.091v93.091h139.636c25.706 0 46.546-20.84 46.546-46.546v0zM186.183 773.818v-651.636h372.363v651.636zM279.274 494.546h186.182v-93.091h-186.182zM279.274 680.727h186.182v-93.091h-186.182z" />
<glyph unicode="&#xe922;" glyph-name="fortangle" d="M478.937 934.416c3.931 14.831 17.232 25.584 33.045 25.584 15.998 0 29.426-11.007 33.124-25.861l0.050-0.235c25.631-115.769 80.989-215.972 157.649-295.5l-0.179 0.187c79.345-76.488 179.543-131.86 291.231-156.762l4.082-0.764c15.016-3.8 25.95-17.192 25.95-33.138s-10.934-29.338-25.714-33.087l-0.236-0.051c-115.77-25.666-215.969-81.040-295.501-157.706l0.187 0.18c-76.488-79.345-131.86-179.543-156.762-291.231l-0.764-4.082c-3.8-15.016-17.192-25.95-33.138-25.95s-29.338 10.934-33.087 25.714l-0.051 0.236c-25.666 115.77-81.040 215.969-157.706 295.501l0.18-0.187c-79.345 76.488-179.543 131.86-291.231 156.762l-4.082 0.764c-15.032 3.788-25.983 17.188-25.983 33.146 0 15.772 10.697 29.045 25.232 32.961l0.239 0.055c115.037 27.615 214.357 83.624 293.612 160.256l-0.176-0.169c76.443 79.063 132.433 178.364 159.154 289.083l0.876 4.296zM511.194 814.322l-4.551-11.093c-30.21-71.977-69.713-133.867-117.926-187.806l0.563 0.641-11.378-12.174-10.866-11.378c-54.648-54.093-118.951-98.56-190.072-130.565l-4.090-1.646-16.213-7.054-11.093-4.551 12.004-4.779c72.609-29.377 135.059-68.597 189.294-116.85l-0.65 0.568 12.231-11.378 11.378-10.866c54.331-54.852 98.662-119.726 129.954-191.586l1.574-4.056 6.94-16.384 3.698-9.557 3.925 9.956c29.411 72.606 68.648 135.053 116.907 189.295l-0.568-0.651 11.378 12.231 10.866 11.378c54.852 54.331 119.726 98.662 191.586 129.954l4.056 1.574 16.384 6.94 9.956 3.925-10.012 3.925c-82.563 33.037-153.13 79.699-212.347 137.877l0.093-0.091c-54.281 54.904-98.56 119.837-129.786 191.75l-1.571 4.064-6.94 16.384-4.722 12.004zM888.029 947.159c1.96 7.422 8.615 12.806 16.526 12.806s14.566-5.383 16.499-12.687l0.027-0.119c5.048-23.007 16.011-42.93 31.214-58.75l-0.039 0.040c15.779-15.164 35.702-26.128 57.902-31.026l0.807-0.149c7.537-1.879 13.033-8.589 13.033-16.583s-5.496-14.704-12.915-16.558l-0.118-0.025c-23.007-5.048-42.93-16.011-58.75-31.214l0.040 0.039c-15.164-15.779-26.128-35.702-31.026-57.902l-0.149-0.807c-1.879-7.537-8.589-13.033-16.583-13.033s-14.704 5.496-16.558 12.915l-0.025 0.118c-5.048 23.007-16.011 42.93-31.214 58.75l0.039-0.040c-15.779 15.164-35.702 26.128-57.902 31.026l-0.807 0.149c-7.479 1.921-12.918 8.603-12.918 16.555s5.439 14.634 12.799 16.529l0.118 0.026c22.897 5.449 42.675 16.56 58.463 31.781l-0.038-0.037c15.088 15.704 26.135 35.4 31.401 57.344l0.173 0.853z" />
<glyph unicode="&#xe923;" glyph-name="shop" d="M972.801 466.158v-478.958c0-28.277-22.924-51.2-51.2-51.2v0h-819.2c-28.277 0-51.2 22.924-51.2 51.2v0 478.958c-31.786 35.812-51.2 83.228-51.2 135.179 0 0.092 0 0.185 0 0.277v-0.014 307.2c0 28.277 22.924 51.2 51.2 51.2v0h921.599c28.277 0 51.2-22.924 51.2-51.2v0-307.2c0-0.055 0-0.12 0-0.185 0-51.976-19.414-99.416-51.385-135.468l0.185 0.212zM870.401 403.286c-15.322-4.099-32.914-6.455-51.054-6.455-61.109 0-115.977 26.72-153.559 69.114l-0.186 0.214c-37.71-42.611-92.533-69.337-153.6-69.337s-115.89 26.726-153.411 69.121l-0.188 0.216c-37.62-42.665-92.404-69.437-153.44-69.437-18.254 0-35.948 2.394-52.787 6.887l1.427-0.324v-364.885h716.799v364.816zM614.401 601.6c0 28.277 22.924 51.2 51.2 51.2s51.2-22.924 51.2-51.2v0c0-56.554 45.846-102.4 102.4-102.4s102.4 45.846 102.4 102.4v0 255.999h-819.2v-255.999c0-56.554 45.846-102.4 102.4-102.4s102.4 45.846 102.4 102.4v0c0 28.277 22.924 51.2 51.2 51.2s51.2-22.924 51.2-51.2v0c0-56.554 45.846-102.4 102.4-102.4s102.4 45.846 102.4 102.4v0z" />
<glyph unicode="&#xe924;" glyph-name="up-line" d="M972.818 908.788c28.267 0 51.182-22.915 51.182-51.182v0-819.212c0-28.267-22.915-51.182-51.182-51.182v0h-921.636c-28.267 0-51.182 22.915-51.182 51.182v0 819.212c0 28.267 22.915 51.182 51.182 51.182v0zM102.425 447.97v-358.394h819.212v358.394zM102.425 550.394h819.212v255.969h-819.212z" />
<glyph unicode="&#xe925;" glyph-name="up-left-line" d="M56.867-64.001c-31.407 0-56.867 25.46-56.867 56.867v0 910.267c0 31.407 25.46 56.867 56.867 56.867h910.267c31.407 0 56.867-25.46 56.867-56.867v0-910.267c0-31.407-25.46-56.867-56.867-56.867v0zM284.467 561.798h-170.666v-511.999h170.666zM910.267 561.798h-511.999v-511.999h511.999zM910.267 846.265h-796.466v-170.666h796.398z" />
<glyph unicode="&#xe926;" glyph-name="down-line" d="M972.818 908.818c28.267 0 51.182-22.915 51.182-51.182v0-819.273c0-28.267-22.915-51.182-51.182-51.182v0h-921.636c-28.267 0-51.182 22.915-51.182 51.182v0 819.273c0 28.267 22.915 51.182 51.182 51.182v0zM102.425 243.214v-153.606h819.212v153.606zM102.425 345.638h819.212v460.818h-819.212z" />
<glyph unicode="&#xe927;" glyph-name="left-line" d="M972.818 908.818c28.267 0 51.182-22.915 51.182-51.182v0-819.273c0-28.267-22.915-51.182-51.182-51.182v0h-921.636c-28.267 0-51.182 22.915-51.182 51.182v0 819.273c0 28.267 22.915 51.182 51.182 51.182v0zM256.031 806.393h-153.606v-716.787h153.606zM921.636 806.393h-563.242v-716.787h563.242z" />
<glyph unicode="&#xe928;" glyph-name="left-center-line" d="M967.134 960.001c31.407 0 56.867-25.46 56.867-56.867v0-910.267c0-31.407-25.46-56.867-56.867-56.867v0h-910.267c-31.407 0-56.867 25.46-56.867 56.867v0 910.267c0 31.407 25.46 56.867 56.867 56.867v0zM284.468 391.135h-170.666v-341.333h170.666zM398.269 49.802h511.999v796.398h-511.999zM284.468 846.201h-170.666v-341.333h170.666z" />
<glyph unicode="&#xe929;" glyph-name="rigth-line" d="M51.182 908.818c-28.267 0-51.182-22.915-51.182-51.182v0-819.273c0-28.267 22.915-51.182 51.182-51.182v0h921.636c28.267 0 51.182 22.915 51.182 51.182v0 819.273c0 28.267-22.915 51.182-51.182 51.182v0zM768.030 806.394h153.606v-716.787h-153.606zM102.425 806.394h563.242v-716.787h-563.242z" />
<glyph unicode="&#xe92a;" glyph-name="rigth-center-line" d="M56.867 960c-31.407 0-56.867-25.46-56.867-56.867v-910.267c0-31.407 25.46-56.867 56.867-56.867v0h910.267c31.407 0 56.867 25.46 56.867 56.867v0 910.267c0 31.407-25.46 56.867-56.867 56.867v0zM739.533 391.134h170.666v-341.333h-170.666zM625.732 49.802h-511.999v796.398h511.999zM739.533 846.199h170.666v-341.333h-170.666z" />
<glyph unicode="&#xe92b;" glyph-name="top" d="M930.889 75.639h93.111v-93.111h-1024v93.111h93.111v791.305c0 25.697 20.831 46.528 46.528 46.528v0h744.722c25.697 0 46.528-20.831 46.528-46.528v0zM837.834 75.639v744.722h-651.666v-744.722zM325.806 494.555h139.639v-93.111h-139.639zM325.806 680.721h139.639v-93.055h-139.639zM325.806 308.388h139.639v-93.111h-139.639zM558.556 308.388h139.639v-93.111h-139.639zM558.556 494.555h139.639v-93.111h-139.639zM558.556 680.721h139.639v-93.055h-139.639z" />
<glyph unicode="&#xe92c;" glyph-name="telegram" d="M401.792 312.277l-16.939-238.251c24.235 0 34.731 10.411 47.317 22.912l113.621 108.587 235.435-172.416c43.179-24.064 73.6-11.392 85.248 39.723l154.539 724.139 0.043 0.043c13.696 63.829-23.083 88.789-65.152 73.131l-908.373-347.776c-61.995-24.064-61.056-58.624-10.539-74.283l232.235-72.235 539.435 337.536c25.387 16.811 48.469 7.509 29.483-9.301z" />
</font>
</defs>
</svg>
